<svg xmlns="http://www.w3.org/2000/svg" width="23.971" height="21" viewBox="0 0 23.971 21">
  <path id="パス_81352" data-name="パス 81352" d="M12-13.266A14.53,14.53,0,0,1,9.75-5.3,11.393,11.393,0,0,1,3.8-.562,8.367,8.367,0,0,1,.75,0,8.544,8.544,0,0,1-3.516-1.219,8.439,8.439,0,0,1-6.562-4.453,12.708,12.708,0,0,0-9.094-1.031,12.624,12.624,0,0,0-9.8.656a1.091,1.091,0,0,1-1.078.844.885.885,0,0,1-.281-.047,1.126,1.126,0,0,1-.8-1.359,13.513,13.513,0,0,1,1.688-3.562A15.85,15.85,0,0,1-5.344-8.156,17.256,17.256,0,0,1,3.75-10.5a.722.722,0,0,0,.75-.75A.722.722,0,0,0,3.75-12a20.653,20.653,0,0,0-6.562,1.031A17.507,17.507,0,0,0-7.5-8.437a6.354,6.354,0,0,1,.188-1.547,8.206,8.206,0,0,1,2.156-4.078,8.572,8.572,0,0,1,3.984-2.25,8.64,8.64,0,0,1,3.8,0,6.766,6.766,0,0,0,3.938-.234,5.78,5.78,0,0,0,3.047-2.625.718.718,0,0,1,.609-.328.6.6,0,0,1,.563.375A15.228,15.228,0,0,1,12-13.266Z" transform="translate(11.971 19.5)" fill="#67be91"/>
</svg>
