<svg xmlns="http://www.w3.org/2000/svg" width="118.605" height="73.984" viewBox="0 0 118.605 73.984">
  <g id="鳥" transform="translate(-1181.395 -1083.016)">
    <path id="パス_27132" data-name="パス 27132" d="M184.081,34.7c-.686-.161-1.388-.236-2.074-.385-.436-.1-.334-.033-.472-.421-.086-.242-.128-.5-.224-.74a6.593,6.593,0,0,0-1.973-2.659,10.122,10.122,0,0,0-3.779-1.734c-1.274-.343-2.695.006-4.035-.922-.845-5.769-4.014-10.156-8.954-13.35a31.027,31.027,0,0,0-3.032-1.731,23.527,23.527,0,0,0-6.19-2.092,21.537,21.537,0,0,0-3.331-.337q-.869-.022-1.737.027c-.385.021-1.167-.1-1.415.266-.3.43.266,1.182.472,1.552.3.546.642,1.071.979,1.594a13.892,13.892,0,0,1,1.615,3.05,21.582,21.582,0,0,1,1.558,7.151c-.039,2.292.466,4.656-.564,6.823a9.47,9.47,0,0,1-3.767.093c-.668-.054-1.334-.158-2-.161a1.424,1.424,0,0,0-1.54,1.421c-.027,2.564-.054,5.133.06,7.691.066,1.516.809,2.032,2.474,2.044,1.549.012,3.1,0,4.808,0a14.043,14.043,0,0,1-1.8,10.183,21.972,21.972,0,0,1-3.385,4.134,3.4,3.4,0,0,0-1.092,2.009,1.309,1.309,0,0,0,.97,1.513,8.9,8.9,0,0,0,1.322.173,43.667,43.667,0,0,0,14.559-1.537,14.067,14.067,0,0,0,8.422-6.178,17.8,17.8,0,0,0,1.645-4.005c.454-1.37.54-2.958,1.307-4.1.881-1.319,2.788-1.2,4.175-1.892a11.482,11.482,0,0,0,2.65-1.561,8.664,8.664,0,0,0,1.534-2.823,2.345,2.345,0,0,1,.385-.624,2.586,2.586,0,0,1,1.068-.537,8.977,8.977,0,0,0,1.6-.743c.239-.143.5-.349.481-.627-.021-.328-.406-.486-.725-.564m-7.36,1.647a1.064,1.064,0,0,1-1.158.857,1,1,0,0,1-.782-1.188c.1-.558.666-1.03,1.131-.874a1.086,1.086,0,0,1,.809,1.206" transform="translate(1037.798 1072.698)" fill="#67be91"/>
    <path id="パス_27133" data-name="パス 27133" d="M183.575,38.1c-1.024-.242-2.068-.352-3.092-.576-.651-.143-.5-.048-.7-.627-.128-.361-.194-.743-.334-1.1a9.845,9.845,0,0,0-2.94-3.966,15.092,15.092,0,0,0-5.632-2.582c-1.9-.513-4.014.006-6.011-1.376-1.259-8.6-5.984-15.135-13.344-19.892A46.31,46.31,0,0,0,147,5.4a35.037,35.037,0,0,0-9.228-3.116,31.794,31.794,0,0,0-4.96-.5c-.863-.021-1.728-.006-2.588.039-.576.033-1.74-.14-2.11.4-.439.639.4,1.761.7,2.313.454.812.955,1.594,1.457,2.376a20.674,20.674,0,0,1,2.409,4.545c1.152,3.468,2.388,6.945,2.325,10.658-.066,3.417.689,6.936-.842,10.168a14.207,14.207,0,0,1-5.617.137c-.994-.081-1.988-.236-2.979-.242a2.123,2.123,0,0,0-2.3,2.119c-.039,3.82-.078,7.646.09,11.461.1,2.259,1.206,3.029,3.686,3.047,2.31.018,4.62,0,7.166,0a20.929,20.929,0,0,1-2.683,15.176,32.693,32.693,0,0,1-5.044,6.157,5.075,5.075,0,0,0-1.627,3,1.947,1.947,0,0,0,1.441,2.253,12.568,12.568,0,0,0,1.973.257,65.056,65.056,0,0,0,21.695-2.289,20.97,20.97,0,0,0,12.556-9.207,26.756,26.756,0,0,0,2.45-5.966c.675-2.044.806-4.408,1.946-6.115,1.313-1.961,4.154-1.791,6.22-2.817a17,17,0,0,0,3.952-2.325c1.137-1.021,1.644-2.847,2.289-4.208a3.338,3.338,0,0,1,.57-.931,3.869,3.869,0,0,1,1.594-.8,13.044,13.044,0,0,0,2.388-1.11c.355-.209.743-.516.719-.928-.033-.492-.606-.728-1.083-.842M172.61,40.553a1.59,1.59,0,0,1-1.728,1.274,1.486,1.486,0,0,1-1.164-1.77c.143-.83.991-1.531,1.683-1.3a1.624,1.624,0,0,1,1.209,1.8" transform="translate(1115.34 1081.247)" fill="#ffac99"/>
  </g>
</svg>
