<svg xmlns="http://www.w3.org/2000/svg" xmlns:xlink="http://www.w3.org/1999/xlink" width="111" height="82.779" viewBox="0 0 111 82.779">
  <defs>
    <clipPath id="clip-path">
      <rect id="長方形_1799" data-name="長方形 1799" width="69.204" height="34.079" transform="translate(0 0)" fill="none"/>
    </clipPath>
  </defs>
  <g id="イラスト" transform="translate(-1277 -1802.3)">
    <path id="パス_27139" data-name="パス 27139" d="M112.392,40.3c-2.557-5.5-9.907-7.511-16.417-4.486a15.317,15.317,0,0,0-3.246,2.049c2.164-4.42,4.777-8.645,6.673-9.115a.782.782,0,1,0-.376-1.518c-3.735.925-8,10.262-9.75,14.475a28.839,28.839,0,0,0-2.091,3.636,29.355,29.355,0,0,0,.746-4.129c1.379-4.349,4.138-14.234,1.88-17.349a.781.781,0,1,0-1.266.917c1.147,1.583.418,6.5-.777,11.271a15.3,15.3,0,0,0-1.159-3.659c-3.026-6.508-9.938-9.712-15.442-7.156s-7.513,9.909-4.487,16.417a14.672,14.672,0,0,0,4.382,5.477c-3.91,2.237-5.765,6.59-4.123,10.122,1.75,3.764,6.778,5.138,11.231,3.068a12.233,12.233,0,0,0,5.717-5.957,12.248,12.248,0,0,0,.528,8.24c2.07,4.453,6.8,6.646,10.565,4.9,3.532-1.642,4.921-6.166,3.375-10.4a14.659,14.659,0,0,0,6.88-1.36c6.508-3.024,9.712-9.938,7.156-15.442" transform="translate(1274.728 1778.76)" fill="#ffac99"/>
    <g id="グループ_16" data-name="グループ 16" transform="translate(1277 1851)">
      <g id="グループ_15" data-name="グループ 15" clip-path="url(#clip-path)">
        <path id="パス_27140" data-name="パス 27140" d="M49.275,24.393a2,2,0,1,1-2.732.732,2,2,0,0,1,2.732-.732" fill="#9fcb56"/>
        <path id="パス_27141" data-name="パス 27141" d="M65.436,16.4a2,2,0,1,1-2.732.732,2,2,0,0,1,2.732-.732" fill="#9fcb56"/>
        <path id="パス_27142" data-name="パス 27142" d="M68.2,7.608a2,2,0,1,1-2.732.732A2,2,0,0,1,68.2,7.608" fill="#9fcb56"/>
        <path id="パス_27143" data-name="パス 27143" d="M38.115,23.723a2,2,0,1,1-2.732.732,2,2,0,0,1,2.732-.732" fill="#9fcb56"/>
        <path id="パス_27144" data-name="パス 27144" d="M29.821,20.089a2,2,0,1,1-2.732.732,2,2,0,0,1,2.732-.732" fill="#9fcb56"/>
        <path id="パス_27145" data-name="パス 27145" d="M24.563,3.2a2,2,0,1,1-2.733.732A2,2,0,0,1,24.563,3.2" fill="#9fcb56"/>
        <path id="パス_27146" data-name="パス 27146" d="M35.491.268A2,2,0,1,1,32.759,1,2,2,0,0,1,35.491.268" fill="#c1e061"/>
        <path id="パス_27147" data-name="パス 27147" d="M42.115,16.8a2,2,0,1,1-2.732.732,2,2,0,0,1,2.732-.732" fill="#9fcb56"/>
        <path id="パス_27148" data-name="パス 27148" d="M35.491.268A2,2,0,1,1,32.759,1,2,2,0,0,1,35.491.268" fill="#9fcb56"/>
        <path id="パス_27149" data-name="パス 27149" d="M29.785,28.151a2,2,0,1,1-2.732.732,2,2,0,0,1,2.732-.732" fill="#9fcb56"/>
        <path id="パス_27150" data-name="パス 27150" d="M21.589,30.347a2,2,0,1,1-2.732.732,2,2,0,0,1,2.732-.732" fill="#9fcb56"/>
        <path id="パス_27151" data-name="パス 27151" d="M11.3,30.177a2,2,0,1,1-2.732.732,2,2,0,0,1,2.732-.732" fill="#9fcb56"/>
        <path id="パス_27152" data-name="パス 27152" d="M57.972,21.33a2,2,0,1,1-2.733.732,2,2,0,0,1,2.733-.732" fill="#9fcb56"/>
        <path id="パス_27153" data-name="パス 27153" d="M23.527,12.991a2,2,0,1,1-2.732.732,2,2,0,0,1,2.732-.732" fill="#9fcb56"/>
        <path id="パス_27154" data-name="パス 27154" d="M41.785,7.366a2,2,0,1,1-2.732.732,2,2,0,0,1,2.732-.732" fill="#9fcb56"/>
        <path id="パス_27155" data-name="パス 27155" d="M3,26.543a2,2,0,1,1-2.732.732A2,2,0,0,1,3,26.543" fill="#9fcb56"/>
      </g>
    </g>
  </g>
</svg>
