<svg xmlns="http://www.w3.org/2000/svg" width="24" height="18" viewBox="0 0 24 18">
  <path id="パス_81357" data-name="パス 81357" d="M0-4.5a3.678,3.678,0,0,1-2.2-.75L-12-12.891V-2.25a2.446,2.446,0,0,0,.656,1.594A2.446,2.446,0,0,0-9.75,0H9.75a2.446,2.446,0,0,0,1.594-.656A2.446,2.446,0,0,0,12-2.25V-12.891L2.2-5.25A3.678,3.678,0,0,1,0-4.5Zm-11.25-9.7,9.938,7.734A2.111,2.111,0,0,0,0-6a2.111,2.111,0,0,0,1.313-.469L11.25-14.2A2.106,2.106,0,0,0,12-15.75a2.446,2.446,0,0,0-.656-1.594A2.446,2.446,0,0,0,9.75-18H-9.75a2.446,2.446,0,0,0-1.594.656A2.446,2.446,0,0,0-12-15.75,1.909,1.909,0,0,0-11.25-14.2Z" transform="translate(12 18)" fill="#67be91"/>
</svg>
