<svg xmlns="http://www.w3.org/2000/svg" xmlns:xlink="http://www.w3.org/1999/xlink" width="1175" height="815" viewBox="0 0 1175 815">
  <defs>
    <clipPath id="clip-path">
      <rect width="264" height="237" fill="none"/>
    </clipPath>
    <clipPath id="clip-path-2">
      <rect width="229" height="236" fill="none"/>
    </clipPath>
  </defs>
  <g id="グループ_5839" data-name="グループ 5839" transform="translate(-237 -1089)">
    <g id="bg" transform="translate(1148 1089)" opacity="0.5" clip-path="url(#clip-path)">
      <g id="slide_btn" transform="translate(-722 -823)">
        <circle id="楕円形_7" data-name="楕円形 7" cx="6" cy="6" r="6" transform="translate(722 823)" fill="#ffac99"/>
        <circle id="楕円形_7-2" data-name="楕円形 7" cx="6" cy="6" r="6" transform="translate(758 823)" fill="#ffac99"/>
        <circle id="楕円形_7-3" data-name="楕円形 7" cx="6" cy="6" r="6" transform="translate(794 823)" fill="#ffac99"/>
        <circle id="楕円形_7-4" data-name="楕円形 7" cx="6" cy="6" r="6" transform="translate(830 823)" fill="#ffac99"/>
        <circle id="楕円形_7-5" data-name="楕円形 7" cx="6" cy="6" r="6" transform="translate(866 823)" fill="#ffac99"/>
      </g>
      <g id="slide_btn-2" data-name="slide_btn" transform="translate(-542 -823)">
        <circle id="楕円形_7-6" data-name="楕円形 7" cx="6" cy="6" r="6" transform="translate(722 823)" fill="#ffac99"/>
        <circle id="楕円形_7-7" data-name="楕円形 7" cx="6" cy="6" r="6" transform="translate(758 823)" fill="#ffac99"/>
        <circle id="楕円形_7-8" data-name="楕円形 7" cx="6" cy="6" r="6" transform="translate(794 823)" fill="#ffac99"/>
        <circle id="楕円形_7-9" data-name="楕円形 7" cx="6" cy="6" r="6" transform="translate(830 823)" fill="#ffac99"/>
        <circle id="楕円形_7-10" data-name="楕円形 7" cx="6" cy="6" r="6" transform="translate(866 823)" fill="#ffac99"/>
      </g>
      <g id="slide_btn-3" data-name="slide_btn" transform="translate(-722 -791)">
        <circle id="楕円形_7-11" data-name="楕円形 7" cx="6" cy="6" r="6" transform="translate(722 823)" fill="#ffac99"/>
        <circle id="楕円形_7-12" data-name="楕円形 7" cx="6" cy="6" r="6" transform="translate(758 823)" fill="#ffac99"/>
        <circle id="楕円形_7-13" data-name="楕円形 7" cx="6" cy="6" r="6" transform="translate(794 823)" fill="#ffac99"/>
        <circle id="楕円形_7-14" data-name="楕円形 7" cx="6" cy="6" r="6" transform="translate(830 823)" fill="#ffac99"/>
        <circle id="楕円形_7-15" data-name="楕円形 7" cx="6" cy="6" r="6" transform="translate(866 823)" fill="#ffac99"/>
      </g>
      <g id="slide_btn-4" data-name="slide_btn" transform="translate(-542 -791)">
        <circle id="楕円形_7-16" data-name="楕円形 7" cx="6" cy="6" r="6" transform="translate(722 823)" fill="#ffac99"/>
        <circle id="楕円形_7-17" data-name="楕円形 7" cx="6" cy="6" r="6" transform="translate(758 823)" fill="#ffac99"/>
        <circle id="楕円形_7-18" data-name="楕円形 7" cx="6" cy="6" r="6" transform="translate(794 823)" fill="#ffac99"/>
        <circle id="楕円形_7-19" data-name="楕円形 7" cx="6" cy="6" r="6" transform="translate(830 823)" fill="#ffac99"/>
        <circle id="楕円形_7-20" data-name="楕円形 7" cx="6" cy="6" r="6" transform="translate(866 823)" fill="#ffac99"/>
      </g>
      <g id="slide_btn-5" data-name="slide_btn" transform="translate(-722 -759)">
        <circle id="楕円形_7-21" data-name="楕円形 7" cx="6" cy="6" r="6" transform="translate(722 823)" fill="#ffac99"/>
        <circle id="楕円形_7-22" data-name="楕円形 7" cx="6" cy="6" r="6" transform="translate(758 823)" fill="#ffac99"/>
        <circle id="楕円形_7-23" data-name="楕円形 7" cx="6" cy="6" r="6" transform="translate(794 823)" fill="#ffac99"/>
        <circle id="楕円形_7-24" data-name="楕円形 7" cx="6" cy="6" r="6" transform="translate(830 823)" fill="#ffac99"/>
        <circle id="楕円形_7-25" data-name="楕円形 7" cx="6" cy="6" r="6" transform="translate(866 823)" fill="#ffac99"/>
      </g>
      <g id="slide_btn-6" data-name="slide_btn" transform="translate(-542 -759)">
        <circle id="楕円形_7-26" data-name="楕円形 7" cx="6" cy="6" r="6" transform="translate(722 823)" fill="#ffac99"/>
        <circle id="楕円形_7-27" data-name="楕円形 7" cx="6" cy="6" r="6" transform="translate(758 823)" fill="#ffac99"/>
        <circle id="楕円形_7-28" data-name="楕円形 7" cx="6" cy="6" r="6" transform="translate(794 823)" fill="#ffac99"/>
        <circle id="楕円形_7-29" data-name="楕円形 7" cx="6" cy="6" r="6" transform="translate(830 823)" fill="#ffac99"/>
        <circle id="楕円形_7-30" data-name="楕円形 7" cx="6" cy="6" r="6" transform="translate(866 823)" fill="#ffac99"/>
      </g>
      <g id="slide_btn-7" data-name="slide_btn" transform="translate(-722 -727)">
        <circle id="楕円形_7-31" data-name="楕円形 7" cx="6" cy="6" r="6" transform="translate(722 823)" fill="#ffac99"/>
        <circle id="楕円形_7-32" data-name="楕円形 7" cx="6" cy="6" r="6" transform="translate(758 823)" fill="#ffac99"/>
        <circle id="楕円形_7-33" data-name="楕円形 7" cx="6" cy="6" r="6" transform="translate(794 823)" fill="#ffac99"/>
        <circle id="楕円形_7-34" data-name="楕円形 7" cx="6" cy="6" r="6" transform="translate(830 823)" fill="#ffac99"/>
        <circle id="楕円形_7-35" data-name="楕円形 7" cx="6" cy="6" r="6" transform="translate(866 823)" fill="#ffac99"/>
      </g>
      <g id="slide_btn-8" data-name="slide_btn" transform="translate(-542 -727)">
        <circle id="楕円形_7-36" data-name="楕円形 7" cx="6" cy="6" r="6" transform="translate(722 823)" fill="#ffac99"/>
        <circle id="楕円形_7-37" data-name="楕円形 7" cx="6" cy="6" r="6" transform="translate(758 823)" fill="#ffac99"/>
        <circle id="楕円形_7-38" data-name="楕円形 7" cx="6" cy="6" r="6" transform="translate(794 823)" fill="#ffac99"/>
        <circle id="楕円形_7-39" data-name="楕円形 7" cx="6" cy="6" r="6" transform="translate(830 823)" fill="#ffac99"/>
        <circle id="楕円形_7-40" data-name="楕円形 7" cx="6" cy="6" r="6" transform="translate(866 823)" fill="#ffac99"/>
      </g>
      <g id="slide_btn-9" data-name="slide_btn" transform="translate(-722 -695)">
        <circle id="楕円形_7-41" data-name="楕円形 7" cx="6" cy="6" r="6" transform="translate(722 823)" fill="#ffac99"/>
        <circle id="楕円形_7-42" data-name="楕円形 7" cx="6" cy="6" r="6" transform="translate(758 823)" fill="#ffac99"/>
        <circle id="楕円形_7-43" data-name="楕円形 7" cx="6" cy="6" r="6" transform="translate(794 823)" fill="#ffac99"/>
        <circle id="楕円形_7-44" data-name="楕円形 7" cx="6" cy="6" r="6" transform="translate(830 823)" fill="#ffac99"/>
        <circle id="楕円形_7-45" data-name="楕円形 7" cx="6" cy="6" r="6" transform="translate(866 823)" fill="#ffac99"/>
      </g>
      <g id="slide_btn-10" data-name="slide_btn" transform="translate(-542 -695)">
        <circle id="楕円形_7-46" data-name="楕円形 7" cx="6" cy="6" r="6" transform="translate(722 823)" fill="#ffac99"/>
        <circle id="楕円形_7-47" data-name="楕円形 7" cx="6" cy="6" r="6" transform="translate(758 823)" fill="#ffac99"/>
        <circle id="楕円形_7-48" data-name="楕円形 7" cx="6" cy="6" r="6" transform="translate(794 823)" fill="#ffac99"/>
        <circle id="楕円形_7-49" data-name="楕円形 7" cx="6" cy="6" r="6" transform="translate(830 823)" fill="#ffac99"/>
        <circle id="楕円形_7-50" data-name="楕円形 7" cx="6" cy="6" r="6" transform="translate(866 823)" fill="#ffac99"/>
      </g>
      <g id="slide_btn-11" data-name="slide_btn" transform="translate(-722 -663)">
        <circle id="楕円形_7-51" data-name="楕円形 7" cx="6" cy="6" r="6" transform="translate(722 823)" fill="#ffac99"/>
        <circle id="楕円形_7-52" data-name="楕円形 7" cx="6" cy="6" r="6" transform="translate(758 823)" fill="#ffac99"/>
        <circle id="楕円形_7-53" data-name="楕円形 7" cx="6" cy="6" r="6" transform="translate(794 823)" fill="#ffac99"/>
        <circle id="楕円形_7-54" data-name="楕円形 7" cx="6" cy="6" r="6" transform="translate(830 823)" fill="#ffac99"/>
        <circle id="楕円形_7-55" data-name="楕円形 7" cx="6" cy="6" r="6" transform="translate(866 823)" fill="#ffac99"/>
      </g>
      <g id="slide_btn-12" data-name="slide_btn" transform="translate(-542 -663)">
        <circle id="楕円形_7-56" data-name="楕円形 7" cx="6" cy="6" r="6" transform="translate(722 823)" fill="#ffac99"/>
        <circle id="楕円形_7-57" data-name="楕円形 7" cx="6" cy="6" r="6" transform="translate(758 823)" fill="#ffac99"/>
        <circle id="楕円形_7-58" data-name="楕円形 7" cx="6" cy="6" r="6" transform="translate(794 823)" fill="#ffac99"/>
        <circle id="楕円形_7-59" data-name="楕円形 7" cx="6" cy="6" r="6" transform="translate(830 823)" fill="#ffac99"/>
        <circle id="楕円形_7-60" data-name="楕円形 7" cx="6" cy="6" r="6" transform="translate(866 823)" fill="#ffac99"/>
      </g>
      <g id="slide_btn-13" data-name="slide_btn" transform="translate(-722 -631)">
        <circle id="楕円形_7-61" data-name="楕円形 7" cx="6" cy="6" r="6" transform="translate(722 823)" fill="#ffac99"/>
        <circle id="楕円形_7-62" data-name="楕円形 7" cx="6" cy="6" r="6" transform="translate(758 823)" fill="#ffac99"/>
        <circle id="楕円形_7-63" data-name="楕円形 7" cx="6" cy="6" r="6" transform="translate(794 823)" fill="#ffac99"/>
        <circle id="楕円形_7-64" data-name="楕円形 7" cx="6" cy="6" r="6" transform="translate(830 823)" fill="#ffac99"/>
        <circle id="楕円形_7-65" data-name="楕円形 7" cx="6" cy="6" r="6" transform="translate(866 823)" fill="#ffac99"/>
      </g>
      <g id="slide_btn-14" data-name="slide_btn" transform="translate(-542 -631)">
        <circle id="楕円形_7-66" data-name="楕円形 7" cx="6" cy="6" r="6" transform="translate(722 823)" fill="#ffac99"/>
        <circle id="楕円形_7-67" data-name="楕円形 7" cx="6" cy="6" r="6" transform="translate(758 823)" fill="#ffac99"/>
        <circle id="楕円形_7-68" data-name="楕円形 7" cx="6" cy="6" r="6" transform="translate(794 823)" fill="#ffac99"/>
        <circle id="楕円形_7-69" data-name="楕円形 7" cx="6" cy="6" r="6" transform="translate(830 823)" fill="#ffac99"/>
        <circle id="楕円形_7-70" data-name="楕円形 7" cx="6" cy="6" r="6" transform="translate(866 823)" fill="#ffac99"/>
      </g>
      <g id="slide_btn-15" data-name="slide_btn" transform="translate(-722 -599)">
        <circle id="楕円形_7-71" data-name="楕円形 7" cx="6" cy="6" r="6" transform="translate(722 823)" fill="#ffac99"/>
        <circle id="楕円形_7-72" data-name="楕円形 7" cx="6" cy="6" r="6" transform="translate(758 823)" fill="#ffac99"/>
        <circle id="楕円形_7-73" data-name="楕円形 7" cx="6" cy="6" r="6" transform="translate(794 823)" fill="#ffac99"/>
        <circle id="楕円形_7-74" data-name="楕円形 7" cx="6" cy="6" r="6" transform="translate(830 823)" fill="#ffac99"/>
        <circle id="楕円形_7-75" data-name="楕円形 7" cx="6" cy="6" r="6" transform="translate(866 823)" fill="#ffac99"/>
      </g>
      <g id="slide_btn-16" data-name="slide_btn" transform="translate(-542 -599)">
        <circle id="楕円形_7-76" data-name="楕円形 7" cx="6" cy="6" r="6" transform="translate(722 823)" fill="#ffac99"/>
        <circle id="楕円形_7-77" data-name="楕円形 7" cx="6" cy="6" r="6" transform="translate(758 823)" fill="#ffac99"/>
        <circle id="楕円形_7-78" data-name="楕円形 7" cx="6" cy="6" r="6" transform="translate(794 823)" fill="#ffac99"/>
        <circle id="楕円形_7-79" data-name="楕円形 7" cx="6" cy="6" r="6" transform="translate(830 823)" fill="#ffac99"/>
        <circle id="楕円形_7-80" data-name="楕円形 7" cx="6" cy="6" r="6" transform="translate(866 823)" fill="#ffac99"/>
      </g>
    </g>
    <g id="bg-2" data-name="bg" transform="translate(237 1668)" opacity="0.5" clip-path="url(#clip-path-2)">
      <g id="slide_btn-17" data-name="slide_btn" transform="translate(-722 -823)">
        <circle id="楕円形_7-81" data-name="楕円形 7" cx="6" cy="6" r="6" transform="translate(722 823)" fill="#ffac99"/>
        <circle id="楕円形_7-82" data-name="楕円形 7" cx="6" cy="6" r="6" transform="translate(758 823)" fill="#ffac99"/>
        <circle id="楕円形_7-83" data-name="楕円形 7" cx="6" cy="6" r="6" transform="translate(794 823)" fill="#ffac99"/>
        <circle id="楕円形_7-84" data-name="楕円形 7" cx="6" cy="6" r="6" transform="translate(830 823)" fill="#ffac99"/>
        <circle id="楕円形_7-85" data-name="楕円形 7" cx="6" cy="6" r="6" transform="translate(866 823)" fill="#ffac99"/>
      </g>
      <g id="slide_btn-18" data-name="slide_btn" transform="translate(-542 -823)">
        <circle id="楕円形_7-86" data-name="楕円形 7" cx="6" cy="6" r="6" transform="translate(722 823)" fill="#ffac99"/>
        <circle id="楕円形_7-87" data-name="楕円形 7" cx="6" cy="6" r="6" transform="translate(758 823)" fill="#ffac99"/>
        <circle id="楕円形_7-88" data-name="楕円形 7" cx="6" cy="6" r="6" transform="translate(794 823)" fill="#ffac99"/>
        <circle id="楕円形_7-89" data-name="楕円形 7" cx="6" cy="6" r="6" transform="translate(830 823)" fill="#ffac99"/>
        <circle id="楕円形_7-90" data-name="楕円形 7" cx="6" cy="6" r="6" transform="translate(866 823)" fill="#ffac99"/>
      </g>
      <g id="slide_btn-19" data-name="slide_btn" transform="translate(-722 -791)">
        <circle id="楕円形_7-91" data-name="楕円形 7" cx="6" cy="6" r="6" transform="translate(722 823)" fill="#ffac99"/>
        <circle id="楕円形_7-92" data-name="楕円形 7" cx="6" cy="6" r="6" transform="translate(758 823)" fill="#ffac99"/>
        <circle id="楕円形_7-93" data-name="楕円形 7" cx="6" cy="6" r="6" transform="translate(794 823)" fill="#ffac99"/>
        <circle id="楕円形_7-94" data-name="楕円形 7" cx="6" cy="6" r="6" transform="translate(830 823)" fill="#ffac99"/>
        <circle id="楕円形_7-95" data-name="楕円形 7" cx="6" cy="6" r="6" transform="translate(866 823)" fill="#ffac99"/>
      </g>
      <g id="slide_btn-20" data-name="slide_btn" transform="translate(-542 -791)">
        <circle id="楕円形_7-96" data-name="楕円形 7" cx="6" cy="6" r="6" transform="translate(722 823)" fill="#ffac99"/>
        <circle id="楕円形_7-97" data-name="楕円形 7" cx="6" cy="6" r="6" transform="translate(758 823)" fill="#ffac99"/>
        <circle id="楕円形_7-98" data-name="楕円形 7" cx="6" cy="6" r="6" transform="translate(794 823)" fill="#ffac99"/>
        <circle id="楕円形_7-99" data-name="楕円形 7" cx="6" cy="6" r="6" transform="translate(830 823)" fill="#ffac99"/>
        <circle id="楕円形_7-100" data-name="楕円形 7" cx="6" cy="6" r="6" transform="translate(866 823)" fill="#ffac99"/>
      </g>
      <g id="slide_btn-21" data-name="slide_btn" transform="translate(-722 -759)">
        <circle id="楕円形_7-101" data-name="楕円形 7" cx="6" cy="6" r="6" transform="translate(722 823)" fill="#ffac99"/>
        <circle id="楕円形_7-102" data-name="楕円形 7" cx="6" cy="6" r="6" transform="translate(758 823)" fill="#ffac99"/>
        <circle id="楕円形_7-103" data-name="楕円形 7" cx="6" cy="6" r="6" transform="translate(794 823)" fill="#ffac99"/>
        <circle id="楕円形_7-104" data-name="楕円形 7" cx="6" cy="6" r="6" transform="translate(830 823)" fill="#ffac99"/>
        <circle id="楕円形_7-105" data-name="楕円形 7" cx="6" cy="6" r="6" transform="translate(866 823)" fill="#ffac99"/>
      </g>
      <g id="slide_btn-22" data-name="slide_btn" transform="translate(-542 -759)">
        <circle id="楕円形_7-106" data-name="楕円形 7" cx="6" cy="6" r="6" transform="translate(722 823)" fill="#ffac99"/>
        <circle id="楕円形_7-107" data-name="楕円形 7" cx="6" cy="6" r="6" transform="translate(758 823)" fill="#ffac99"/>
        <circle id="楕円形_7-108" data-name="楕円形 7" cx="6" cy="6" r="6" transform="translate(794 823)" fill="#ffac99"/>
        <circle id="楕円形_7-109" data-name="楕円形 7" cx="6" cy="6" r="6" transform="translate(830 823)" fill="#ffac99"/>
        <circle id="楕円形_7-110" data-name="楕円形 7" cx="6" cy="6" r="6" transform="translate(866 823)" fill="#ffac99"/>
      </g>
      <g id="slide_btn-23" data-name="slide_btn" transform="translate(-722 -727)">
        <circle id="楕円形_7-111" data-name="楕円形 7" cx="6" cy="6" r="6" transform="translate(722 823)" fill="#ffac99"/>
        <circle id="楕円形_7-112" data-name="楕円形 7" cx="6" cy="6" r="6" transform="translate(758 823)" fill="#ffac99"/>
        <circle id="楕円形_7-113" data-name="楕円形 7" cx="6" cy="6" r="6" transform="translate(794 823)" fill="#ffac99"/>
        <circle id="楕円形_7-114" data-name="楕円形 7" cx="6" cy="6" r="6" transform="translate(830 823)" fill="#ffac99"/>
        <circle id="楕円形_7-115" data-name="楕円形 7" cx="6" cy="6" r="6" transform="translate(866 823)" fill="#ffac99"/>
      </g>
      <g id="slide_btn-24" data-name="slide_btn" transform="translate(-542 -727)">
        <circle id="楕円形_7-116" data-name="楕円形 7" cx="6" cy="6" r="6" transform="translate(722 823)" fill="#ffac99"/>
        <circle id="楕円形_7-117" data-name="楕円形 7" cx="6" cy="6" r="6" transform="translate(758 823)" fill="#ffac99"/>
        <circle id="楕円形_7-118" data-name="楕円形 7" cx="6" cy="6" r="6" transform="translate(794 823)" fill="#ffac99"/>
        <circle id="楕円形_7-119" data-name="楕円形 7" cx="6" cy="6" r="6" transform="translate(830 823)" fill="#ffac99"/>
        <circle id="楕円形_7-120" data-name="楕円形 7" cx="6" cy="6" r="6" transform="translate(866 823)" fill="#ffac99"/>
      </g>
      <g id="slide_btn-25" data-name="slide_btn" transform="translate(-722 -695)">
        <circle id="楕円形_7-121" data-name="楕円形 7" cx="6" cy="6" r="6" transform="translate(722 823)" fill="#ffac99"/>
        <circle id="楕円形_7-122" data-name="楕円形 7" cx="6" cy="6" r="6" transform="translate(758 823)" fill="#ffac99"/>
        <circle id="楕円形_7-123" data-name="楕円形 7" cx="6" cy="6" r="6" transform="translate(794 823)" fill="#ffac99"/>
        <circle id="楕円形_7-124" data-name="楕円形 7" cx="6" cy="6" r="6" transform="translate(830 823)" fill="#ffac99"/>
        <circle id="楕円形_7-125" data-name="楕円形 7" cx="6" cy="6" r="6" transform="translate(866 823)" fill="#ffac99"/>
      </g>
      <g id="slide_btn-26" data-name="slide_btn" transform="translate(-542 -695)">
        <circle id="楕円形_7-126" data-name="楕円形 7" cx="6" cy="6" r="6" transform="translate(722 823)" fill="#ffac99"/>
        <circle id="楕円形_7-127" data-name="楕円形 7" cx="6" cy="6" r="6" transform="translate(758 823)" fill="#ffac99"/>
        <circle id="楕円形_7-128" data-name="楕円形 7" cx="6" cy="6" r="6" transform="translate(794 823)" fill="#ffac99"/>
        <circle id="楕円形_7-129" data-name="楕円形 7" cx="6" cy="6" r="6" transform="translate(830 823)" fill="#ffac99"/>
        <circle id="楕円形_7-130" data-name="楕円形 7" cx="6" cy="6" r="6" transform="translate(866 823)" fill="#ffac99"/>
      </g>
      <g id="slide_btn-27" data-name="slide_btn" transform="translate(-722 -663)">
        <circle id="楕円形_7-131" data-name="楕円形 7" cx="6" cy="6" r="6" transform="translate(722 823)" fill="#ffac99"/>
        <circle id="楕円形_7-132" data-name="楕円形 7" cx="6" cy="6" r="6" transform="translate(758 823)" fill="#ffac99"/>
        <circle id="楕円形_7-133" data-name="楕円形 7" cx="6" cy="6" r="6" transform="translate(794 823)" fill="#ffac99"/>
        <circle id="楕円形_7-134" data-name="楕円形 7" cx="6" cy="6" r="6" transform="translate(830 823)" fill="#ffac99"/>
        <circle id="楕円形_7-135" data-name="楕円形 7" cx="6" cy="6" r="6" transform="translate(866 823)" fill="#ffac99"/>
      </g>
      <g id="slide_btn-28" data-name="slide_btn" transform="translate(-542 -663)">
        <circle id="楕円形_7-136" data-name="楕円形 7" cx="6" cy="6" r="6" transform="translate(722 823)" fill="#ffac99"/>
        <circle id="楕円形_7-137" data-name="楕円形 7" cx="6" cy="6" r="6" transform="translate(758 823)" fill="#ffac99"/>
        <circle id="楕円形_7-138" data-name="楕円形 7" cx="6" cy="6" r="6" transform="translate(794 823)" fill="#ffac99"/>
        <circle id="楕円形_7-139" data-name="楕円形 7" cx="6" cy="6" r="6" transform="translate(830 823)" fill="#ffac99"/>
        <circle id="楕円形_7-140" data-name="楕円形 7" cx="6" cy="6" r="6" transform="translate(866 823)" fill="#ffac99"/>
      </g>
      <g id="slide_btn-29" data-name="slide_btn" transform="translate(-722 -631)">
        <circle id="楕円形_7-141" data-name="楕円形 7" cx="6" cy="6" r="6" transform="translate(722 823)" fill="#ffac99"/>
        <circle id="楕円形_7-142" data-name="楕円形 7" cx="6" cy="6" r="6" transform="translate(758 823)" fill="#ffac99"/>
        <circle id="楕円形_7-143" data-name="楕円形 7" cx="6" cy="6" r="6" transform="translate(794 823)" fill="#ffac99"/>
        <circle id="楕円形_7-144" data-name="楕円形 7" cx="6" cy="6" r="6" transform="translate(830 823)" fill="#ffac99"/>
        <circle id="楕円形_7-145" data-name="楕円形 7" cx="6" cy="6" r="6" transform="translate(866 823)" fill="#ffac99"/>
      </g>
      <g id="slide_btn-30" data-name="slide_btn" transform="translate(-542 -631)">
        <circle id="楕円形_7-146" data-name="楕円形 7" cx="6" cy="6" r="6" transform="translate(722 823)" fill="#ffac99"/>
        <circle id="楕円形_7-147" data-name="楕円形 7" cx="6" cy="6" r="6" transform="translate(758 823)" fill="#ffac99"/>
        <circle id="楕円形_7-148" data-name="楕円形 7" cx="6" cy="6" r="6" transform="translate(794 823)" fill="#ffac99"/>
        <circle id="楕円形_7-149" data-name="楕円形 7" cx="6" cy="6" r="6" transform="translate(830 823)" fill="#ffac99"/>
        <circle id="楕円形_7-150" data-name="楕円形 7" cx="6" cy="6" r="6" transform="translate(866 823)" fill="#ffac99"/>
      </g>
      <g id="slide_btn-31" data-name="slide_btn" transform="translate(-722 -599)">
        <circle id="楕円形_7-151" data-name="楕円形 7" cx="6" cy="6" r="6" transform="translate(722 823)" fill="#ffac99"/>
        <circle id="楕円形_7-152" data-name="楕円形 7" cx="6" cy="6" r="6" transform="translate(758 823)" fill="#ffac99"/>
        <circle id="楕円形_7-153" data-name="楕円形 7" cx="6" cy="6" r="6" transform="translate(794 823)" fill="#ffac99"/>
        <circle id="楕円形_7-154" data-name="楕円形 7" cx="6" cy="6" r="6" transform="translate(830 823)" fill="#ffac99"/>
        <circle id="楕円形_7-155" data-name="楕円形 7" cx="6" cy="6" r="6" transform="translate(866 823)" fill="#ffac99"/>
      </g>
      <g id="slide_btn-32" data-name="slide_btn" transform="translate(-542 -599)">
        <circle id="楕円形_7-156" data-name="楕円形 7" cx="6" cy="6" r="6" transform="translate(722 823)" fill="#ffac99"/>
        <circle id="楕円形_7-157" data-name="楕円形 7" cx="6" cy="6" r="6" transform="translate(758 823)" fill="#ffac99"/>
        <circle id="楕円形_7-158" data-name="楕円形 7" cx="6" cy="6" r="6" transform="translate(794 823)" fill="#ffac99"/>
        <circle id="楕円形_7-159" data-name="楕円形 7" cx="6" cy="6" r="6" transform="translate(830 823)" fill="#ffac99"/>
        <circle id="楕円形_7-160" data-name="楕円形 7" cx="6" cy="6" r="6" transform="translate(866 823)" fill="#ffac99"/>
      </g>
    </g>
  </g>
</svg>
