<svg xmlns="http://www.w3.org/2000/svg" width="18" height="259.165" viewBox="0 0 18 259.165">
  <g id="グループ_5854" data-name="グループ 5854" transform="translate(-501 -1949)">
    <path id="パス_27365" data-name="パス 27365" d="M94.667,11.137h-.354v-.354a4.322,4.322,0,1,0-8.645,0v.354h-.354a4.323,4.323,0,1,0,0,8.646h.354v.353a4.322,4.322,0,1,0,8.645,0v-.353h.354a4.323,4.323,0,1,0,0-8.646m-4.676,6.724a2.4,2.4,0,1,1,2.4-2.4,2.4,2.4,0,0,1-2.4,2.4" transform="translate(420.009 1942.539)" fill="#ff5252"/>
    <path id="パス_81348" data-name="パス 81348" d="M0,234.165a2,2,0,0,1-2-2v-.005a2,2,0,0,1,2-2,2,2,0,0,1,2,2v.005A2,2,0,0,1,0,234.165Zm0-8.005a2,2,0,0,1-2-2v-.005a2,2,0,0,1,2-2,2,2,0,0,1,2,2v.005A2,2,0,0,1,0,226.16Zm0-8.005a2,2,0,0,1-2-2v-.006a2,2,0,0,1,2-2,2,2,0,0,1,2,2v.006A2,2,0,0,1,0,218.154Zm0-8.006a2,2,0,0,1-2-2v-.005a2,2,0,0,1,2-2,2,2,0,0,1,2,2v.005A2,2,0,0,1,0,210.148Zm0-8.005a2,2,0,0,1-2-2v-.006a2,2,0,0,1,2-2,2,2,0,0,1,2,2v.006A2,2,0,0,1,0,202.143Zm0-8.006a2,2,0,0,1-2-2v-.005a2,2,0,0,1,2-2,2,2,0,0,1,2,2v.005A2,2,0,0,1,0,194.137Zm0-8.005a2,2,0,0,1-2-2v-.006a2,2,0,0,1,2-2,2,2,0,0,1,2,2v.006A2,2,0,0,1,0,186.132Zm0-8.006a2,2,0,0,1-2-2v-.005a2,2,0,0,1,2-2,2,2,0,0,1,2,2v.005A2,2,0,0,1,0,178.126Zm0-8.005a2,2,0,0,1-2-2v-.006a2,2,0,0,1,2-2,2,2,0,0,1,2,2v.006A2,2,0,0,1,0,170.121Zm0-8.006a2,2,0,0,1-2-2v-.005a2,2,0,0,1,2-2,2,2,0,0,1,2,2v.005A2,2,0,0,1,0,162.115Zm0-8.005a2,2,0,0,1-2-2V152.1a2,2,0,0,1,2-2,2,2,0,0,1,2,2v.005A2,2,0,0,1,0,154.11ZM0,146.1a2,2,0,0,1-2-2V144.1a2,2,0,0,1,2-2,2,2,0,0,1,2,2v.006A2,2,0,0,1,0,146.1ZM0,138.1a2,2,0,0,1-2-2v-.005a2,2,0,0,1,2-2,2,2,0,0,1,2,2v.005A2,2,0,0,1,0,138.1Zm0-8.005a2,2,0,0,1-2-2v-.006a2,2,0,0,1,2-2,2,2,0,0,1,2,2v.006A2,2,0,0,1,0,130.094Zm0-8.006a2,2,0,0,1-2-2v-.006a2,2,0,0,1,2-2,2,2,0,0,1,2,2v.006A2,2,0,0,1,0,122.088Zm0-8.006a2,2,0,0,1-2-2v-.005a2,2,0,0,1,2-2,2,2,0,0,1,2,2v.005A2,2,0,0,1,0,114.082Zm0-8.005a2,2,0,0,1-2-2v-.006a2,2,0,0,1,2-2,2,2,0,0,1,2,2v.006A2,2,0,0,1,0,106.077Zm0-8.006a2,2,0,0,1-2-2v-.006a2,2,0,0,1,2-2,2,2,0,0,1,2,2v.006A2,2,0,0,1,0,98.072Zm0-8.006a2,2,0,0,1-2-2v-.006a2,2,0,0,1,2-2,2,2,0,0,1,2,2v.006A2,2,0,0,1,0,90.066Zm0-8.006a2,2,0,0,1-2-2v-.006a2,2,0,0,1,2-2,2,2,0,0,1,2,2v.006A2,2,0,0,1,0,82.061Zm0-8.006a2,2,0,0,1-2-2v-.006a2,2,0,0,1,2-2,2,2,0,0,1,2,2v.006A2,2,0,0,1,0,74.055Zm0-8.006a2,2,0,0,1-2-2v-.006a2,2,0,0,1,2-2,2,2,0,0,1,2,2v.006A2,2,0,0,1,0,66.049Zm0-8.006a2,2,0,0,1-2-2v-.005a2,2,0,0,1,2-2,2,2,0,0,1,2,2v.005A2,2,0,0,1,0,58.044Zm0-8.005a2,2,0,0,1-2-2v-.006a2,2,0,0,1,2-2,2,2,0,0,1,2,2v.006A2,2,0,0,1,0,50.039Zm0-8.006a2,2,0,0,1-2-2v-.006a2,2,0,0,1,2-2,2,2,0,0,1,2,2v.006A2,2,0,0,1,0,42.033Zm0-8.006a2,2,0,0,1-2-2v-.006a2,2,0,0,1,2-2,2,2,0,0,1,2,2v.006A2,2,0,0,1,0,34.028Zm0-8.006a2,2,0,0,1-2-2v-.005a2,2,0,0,1,2-2,2,2,0,0,1,2,2v.005A2,2,0,0,1,0,26.022Zm0-8.005a2,2,0,0,1-2-2v-.006a2,2,0,0,1,2-2,2,2,0,0,1,2,2v.006A2,2,0,0,1,0,18.017Zm0-8.006a2,2,0,0,1-2-2V8.005a2,2,0,0,1,2-2,2,2,0,0,1,2,2v.005A2,2,0,0,1,0,10.011ZM0,2.006a2,2,0,0,1-2-2V0A2,2,0,0,1,0-2,2,2,0,0,1,2,0V.005A2,2,0,0,1,0,2.006Z" transform="translate(510 1974)" fill="#ffac99"/>
  </g>
</svg>
