<svg xmlns="http://www.w3.org/2000/svg" xmlns:xlink="http://www.w3.org/1999/xlink" width="264" height="237" viewBox="0 0 264 237">
  <defs>
    <clipPath id="clip-path">
      <rect width="264" height="237" fill="none"/>
    </clipPath>
  </defs>
  <g id="bg" opacity="0.5" clip-path="url(#clip-path)">
    <g id="slide_btn" transform="translate(-722 -823)">
      <circle id="楕円形_7" data-name="楕円形 7" cx="6" cy="6" r="6" transform="translate(722 823)" fill="#ffac99"/>
      <circle id="楕円形_7-2" data-name="楕円形 7" cx="6" cy="6" r="6" transform="translate(758 823)" fill="#ffac99"/>
      <circle id="楕円形_7-3" data-name="楕円形 7" cx="6" cy="6" r="6" transform="translate(794 823)" fill="#ffac99"/>
      <circle id="楕円形_7-4" data-name="楕円形 7" cx="6" cy="6" r="6" transform="translate(830 823)" fill="#ffac99"/>
      <circle id="楕円形_7-5" data-name="楕円形 7" cx="6" cy="6" r="6" transform="translate(866 823)" fill="#ffac99"/>
    </g>
    <g id="slide_btn-2" data-name="slide_btn" transform="translate(-542 -823)">
      <circle id="楕円形_7-6" data-name="楕円形 7" cx="6" cy="6" r="6" transform="translate(722 823)" fill="#ffac99"/>
      <circle id="楕円形_7-7" data-name="楕円形 7" cx="6" cy="6" r="6" transform="translate(758 823)" fill="#ffac99"/>
      <circle id="楕円形_7-8" data-name="楕円形 7" cx="6" cy="6" r="6" transform="translate(794 823)" fill="#ffac99"/>
      <circle id="楕円形_7-9" data-name="楕円形 7" cx="6" cy="6" r="6" transform="translate(830 823)" fill="#ffac99"/>
      <circle id="楕円形_7-10" data-name="楕円形 7" cx="6" cy="6" r="6" transform="translate(866 823)" fill="#ffac99"/>
    </g>
    <g id="slide_btn-3" data-name="slide_btn" transform="translate(-722 -791)">
      <circle id="楕円形_7-11" data-name="楕円形 7" cx="6" cy="6" r="6" transform="translate(722 823)" fill="#ffac99"/>
      <circle id="楕円形_7-12" data-name="楕円形 7" cx="6" cy="6" r="6" transform="translate(758 823)" fill="#ffac99"/>
      <circle id="楕円形_7-13" data-name="楕円形 7" cx="6" cy="6" r="6" transform="translate(794 823)" fill="#ffac99"/>
      <circle id="楕円形_7-14" data-name="楕円形 7" cx="6" cy="6" r="6" transform="translate(830 823)" fill="#ffac99"/>
      <circle id="楕円形_7-15" data-name="楕円形 7" cx="6" cy="6" r="6" transform="translate(866 823)" fill="#ffac99"/>
    </g>
    <g id="slide_btn-4" data-name="slide_btn" transform="translate(-542 -791)">
      <circle id="楕円形_7-16" data-name="楕円形 7" cx="6" cy="6" r="6" transform="translate(722 823)" fill="#ffac99"/>
      <circle id="楕円形_7-17" data-name="楕円形 7" cx="6" cy="6" r="6" transform="translate(758 823)" fill="#ffac99"/>
      <circle id="楕円形_7-18" data-name="楕円形 7" cx="6" cy="6" r="6" transform="translate(794 823)" fill="#ffac99"/>
      <circle id="楕円形_7-19" data-name="楕円形 7" cx="6" cy="6" r="6" transform="translate(830 823)" fill="#ffac99"/>
      <circle id="楕円形_7-20" data-name="楕円形 7" cx="6" cy="6" r="6" transform="translate(866 823)" fill="#ffac99"/>
    </g>
    <g id="slide_btn-5" data-name="slide_btn" transform="translate(-722 -759)">
      <circle id="楕円形_7-21" data-name="楕円形 7" cx="6" cy="6" r="6" transform="translate(722 823)" fill="#ffac99"/>
      <circle id="楕円形_7-22" data-name="楕円形 7" cx="6" cy="6" r="6" transform="translate(758 823)" fill="#ffac99"/>
      <circle id="楕円形_7-23" data-name="楕円形 7" cx="6" cy="6" r="6" transform="translate(794 823)" fill="#ffac99"/>
      <circle id="楕円形_7-24" data-name="楕円形 7" cx="6" cy="6" r="6" transform="translate(830 823)" fill="#ffac99"/>
      <circle id="楕円形_7-25" data-name="楕円形 7" cx="6" cy="6" r="6" transform="translate(866 823)" fill="#ffac99"/>
    </g>
    <g id="slide_btn-6" data-name="slide_btn" transform="translate(-542 -759)">
      <circle id="楕円形_7-26" data-name="楕円形 7" cx="6" cy="6" r="6" transform="translate(722 823)" fill="#ffac99"/>
      <circle id="楕円形_7-27" data-name="楕円形 7" cx="6" cy="6" r="6" transform="translate(758 823)" fill="#ffac99"/>
      <circle id="楕円形_7-28" data-name="楕円形 7" cx="6" cy="6" r="6" transform="translate(794 823)" fill="#ffac99"/>
      <circle id="楕円形_7-29" data-name="楕円形 7" cx="6" cy="6" r="6" transform="translate(830 823)" fill="#ffac99"/>
      <circle id="楕円形_7-30" data-name="楕円形 7" cx="6" cy="6" r="6" transform="translate(866 823)" fill="#ffac99"/>
    </g>
    <g id="slide_btn-7" data-name="slide_btn" transform="translate(-722 -727)">
      <circle id="楕円形_7-31" data-name="楕円形 7" cx="6" cy="6" r="6" transform="translate(722 823)" fill="#ffac99"/>
      <circle id="楕円形_7-32" data-name="楕円形 7" cx="6" cy="6" r="6" transform="translate(758 823)" fill="#ffac99"/>
      <circle id="楕円形_7-33" data-name="楕円形 7" cx="6" cy="6" r="6" transform="translate(794 823)" fill="#ffac99"/>
      <circle id="楕円形_7-34" data-name="楕円形 7" cx="6" cy="6" r="6" transform="translate(830 823)" fill="#ffac99"/>
      <circle id="楕円形_7-35" data-name="楕円形 7" cx="6" cy="6" r="6" transform="translate(866 823)" fill="#ffac99"/>
    </g>
    <g id="slide_btn-8" data-name="slide_btn" transform="translate(-542 -727)">
      <circle id="楕円形_7-36" data-name="楕円形 7" cx="6" cy="6" r="6" transform="translate(722 823)" fill="#ffac99"/>
      <circle id="楕円形_7-37" data-name="楕円形 7" cx="6" cy="6" r="6" transform="translate(758 823)" fill="#ffac99"/>
      <circle id="楕円形_7-38" data-name="楕円形 7" cx="6" cy="6" r="6" transform="translate(794 823)" fill="#ffac99"/>
      <circle id="楕円形_7-39" data-name="楕円形 7" cx="6" cy="6" r="6" transform="translate(830 823)" fill="#ffac99"/>
      <circle id="楕円形_7-40" data-name="楕円形 7" cx="6" cy="6" r="6" transform="translate(866 823)" fill="#ffac99"/>
    </g>
    <g id="slide_btn-9" data-name="slide_btn" transform="translate(-722 -695)">
      <circle id="楕円形_7-41" data-name="楕円形 7" cx="6" cy="6" r="6" transform="translate(722 823)" fill="#ffac99"/>
      <circle id="楕円形_7-42" data-name="楕円形 7" cx="6" cy="6" r="6" transform="translate(758 823)" fill="#ffac99"/>
      <circle id="楕円形_7-43" data-name="楕円形 7" cx="6" cy="6" r="6" transform="translate(794 823)" fill="#ffac99"/>
      <circle id="楕円形_7-44" data-name="楕円形 7" cx="6" cy="6" r="6" transform="translate(830 823)" fill="#ffac99"/>
      <circle id="楕円形_7-45" data-name="楕円形 7" cx="6" cy="6" r="6" transform="translate(866 823)" fill="#ffac99"/>
    </g>
    <g id="slide_btn-10" data-name="slide_btn" transform="translate(-542 -695)">
      <circle id="楕円形_7-46" data-name="楕円形 7" cx="6" cy="6" r="6" transform="translate(722 823)" fill="#ffac99"/>
      <circle id="楕円形_7-47" data-name="楕円形 7" cx="6" cy="6" r="6" transform="translate(758 823)" fill="#ffac99"/>
      <circle id="楕円形_7-48" data-name="楕円形 7" cx="6" cy="6" r="6" transform="translate(794 823)" fill="#ffac99"/>
      <circle id="楕円形_7-49" data-name="楕円形 7" cx="6" cy="6" r="6" transform="translate(830 823)" fill="#ffac99"/>
      <circle id="楕円形_7-50" data-name="楕円形 7" cx="6" cy="6" r="6" transform="translate(866 823)" fill="#ffac99"/>
    </g>
    <g id="slide_btn-11" data-name="slide_btn" transform="translate(-722 -663)">
      <circle id="楕円形_7-51" data-name="楕円形 7" cx="6" cy="6" r="6" transform="translate(722 823)" fill="#ffac99"/>
      <circle id="楕円形_7-52" data-name="楕円形 7" cx="6" cy="6" r="6" transform="translate(758 823)" fill="#ffac99"/>
      <circle id="楕円形_7-53" data-name="楕円形 7" cx="6" cy="6" r="6" transform="translate(794 823)" fill="#ffac99"/>
      <circle id="楕円形_7-54" data-name="楕円形 7" cx="6" cy="6" r="6" transform="translate(830 823)" fill="#ffac99"/>
      <circle id="楕円形_7-55" data-name="楕円形 7" cx="6" cy="6" r="6" transform="translate(866 823)" fill="#ffac99"/>
    </g>
    <g id="slide_btn-12" data-name="slide_btn" transform="translate(-542 -663)">
      <circle id="楕円形_7-56" data-name="楕円形 7" cx="6" cy="6" r="6" transform="translate(722 823)" fill="#ffac99"/>
      <circle id="楕円形_7-57" data-name="楕円形 7" cx="6" cy="6" r="6" transform="translate(758 823)" fill="#ffac99"/>
      <circle id="楕円形_7-58" data-name="楕円形 7" cx="6" cy="6" r="6" transform="translate(794 823)" fill="#ffac99"/>
      <circle id="楕円形_7-59" data-name="楕円形 7" cx="6" cy="6" r="6" transform="translate(830 823)" fill="#ffac99"/>
      <circle id="楕円形_7-60" data-name="楕円形 7" cx="6" cy="6" r="6" transform="translate(866 823)" fill="#ffac99"/>
    </g>
    <g id="slide_btn-13" data-name="slide_btn" transform="translate(-722 -631)">
      <circle id="楕円形_7-61" data-name="楕円形 7" cx="6" cy="6" r="6" transform="translate(722 823)" fill="#ffac99"/>
      <circle id="楕円形_7-62" data-name="楕円形 7" cx="6" cy="6" r="6" transform="translate(758 823)" fill="#ffac99"/>
      <circle id="楕円形_7-63" data-name="楕円形 7" cx="6" cy="6" r="6" transform="translate(794 823)" fill="#ffac99"/>
      <circle id="楕円形_7-64" data-name="楕円形 7" cx="6" cy="6" r="6" transform="translate(830 823)" fill="#ffac99"/>
      <circle id="楕円形_7-65" data-name="楕円形 7" cx="6" cy="6" r="6" transform="translate(866 823)" fill="#ffac99"/>
    </g>
    <g id="slide_btn-14" data-name="slide_btn" transform="translate(-542 -631)">
      <circle id="楕円形_7-66" data-name="楕円形 7" cx="6" cy="6" r="6" transform="translate(722 823)" fill="#ffac99"/>
      <circle id="楕円形_7-67" data-name="楕円形 7" cx="6" cy="6" r="6" transform="translate(758 823)" fill="#ffac99"/>
      <circle id="楕円形_7-68" data-name="楕円形 7" cx="6" cy="6" r="6" transform="translate(794 823)" fill="#ffac99"/>
      <circle id="楕円形_7-69" data-name="楕円形 7" cx="6" cy="6" r="6" transform="translate(830 823)" fill="#ffac99"/>
      <circle id="楕円形_7-70" data-name="楕円形 7" cx="6" cy="6" r="6" transform="translate(866 823)" fill="#ffac99"/>
    </g>
    <g id="slide_btn-15" data-name="slide_btn" transform="translate(-722 -599)">
      <circle id="楕円形_7-71" data-name="楕円形 7" cx="6" cy="6" r="6" transform="translate(722 823)" fill="#ffac99"/>
      <circle id="楕円形_7-72" data-name="楕円形 7" cx="6" cy="6" r="6" transform="translate(758 823)" fill="#ffac99"/>
      <circle id="楕円形_7-73" data-name="楕円形 7" cx="6" cy="6" r="6" transform="translate(794 823)" fill="#ffac99"/>
      <circle id="楕円形_7-74" data-name="楕円形 7" cx="6" cy="6" r="6" transform="translate(830 823)" fill="#ffac99"/>
      <circle id="楕円形_7-75" data-name="楕円形 7" cx="6" cy="6" r="6" transform="translate(866 823)" fill="#ffac99"/>
    </g>
    <g id="slide_btn-16" data-name="slide_btn" transform="translate(-542 -599)">
      <circle id="楕円形_7-76" data-name="楕円形 7" cx="6" cy="6" r="6" transform="translate(722 823)" fill="#ffac99"/>
      <circle id="楕円形_7-77" data-name="楕円形 7" cx="6" cy="6" r="6" transform="translate(758 823)" fill="#ffac99"/>
      <circle id="楕円形_7-78" data-name="楕円形 7" cx="6" cy="6" r="6" transform="translate(794 823)" fill="#ffac99"/>
      <circle id="楕円形_7-79" data-name="楕円形 7" cx="6" cy="6" r="6" transform="translate(830 823)" fill="#ffac99"/>
      <circle id="楕円形_7-80" data-name="楕円形 7" cx="6" cy="6" r="6" transform="translate(866 823)" fill="#ffac99"/>
    </g>
  </g>
</svg>
