<svg xmlns="http://www.w3.org/2000/svg" width="24" height="24" viewBox="0 0 24 24">
  <path id="パス_81354" data-name="パス 81354" d="M11.953-3.8a3.518,3.518,0,0,1-1.312,2.672A5.018,5.018,0,0,1,7.5-.047,5.018,5.018,0,0,1,4.359-1.125,3.475,3.475,0,0,1,3.047-3.75,3.378,3.378,0,0,1,4.359-6.375,5.018,5.018,0,0,1,7.5-7.453,4.713,4.713,0,0,1,9-7.219v-6.844L-3-10.5V-.75A3.675,3.675,0,0,1-4.359,1.922,5.087,5.087,0,0,1-7.547,3a5.087,5.087,0,0,1-3.187-1.078A3.575,3.575,0,0,1-12-.75a3.378,3.378,0,0,1,1.313-2.625A5.018,5.018,0,0,1-7.547-4.453a4.713,4.713,0,0,1,1.5.234V-15.047a1.308,1.308,0,0,1,.328-.891,1.344,1.344,0,0,1,.75-.562L9.984-20.953A3.156,3.156,0,0,1,10.5-21a1.46,1.46,0,0,1,1.078.422A1.46,1.46,0,0,1,12-19.5Z" transform="translate(12 21)" fill="#67be91"/>
</svg>
