<svg xmlns="http://www.w3.org/2000/svg" width="104.544" height="60.139" viewBox="0 0 104.544 60.139">
  <g id="てんとう虫" transform="translate(0)">
    <g id="グループ_25" data-name="グループ 25">
      <path id="パス_27208" data-name="パス 27208" d="M23.669,4.946l-.493.451a60.962,60.962,0,0,1-9.889,7.233l7.9,13.686a.829.829,0,1,1-1.42.855l-.015-.025-7.9-13.686A60.967,60.967,0,0,1,.642,18.407l-.637.2A16,16,0,1,0,23.67,4.944M10.623,23.8a2.489,2.489,0,1,1,.913-3.4,2.488,2.488,0,0,1-.913,3.4h0m4.037,5.332a1.686,1.686,0,1,1,.005,0l-.005,0m5.5-13.709a2.489,2.489,0,1,1,3.4.91,2.488,2.488,0,0,1-3.4-.91m6,7.073a1.659,1.659,0,1,1,.608-2.267,1.659,1.659,0,0,1-.608,2.267" fill="#ff5252"/>
      <path id="パス_27209" data-name="パス 27209" d="M20.132,3.514a15.951,15.951,0,0,0-6.354-.4A2.352,2.352,0,1,0,9.224,2.022l-.006-.01A5.584,5.584,0,0,0,4.792,4.568L4.87,4.7A2.357,2.357,0,1,0,3.362,9.128a15.971,15.971,0,0,0-2.833,5.7,15.316,15.316,0,0,0-.384,2.014,59.351,59.351,0,0,0,11.612-5.2,59.314,59.314,0,0,0,10.31-7.455,15.387,15.387,0,0,0-1.935-.675" fill="#ff5252"/>
    </g>
    <g id="グループ_27" data-name="グループ 27">
      <path id="パス_27210" data-name="パス 27210" d="M55.4,56.067a2,2,0,1,0,2.822.2h0a2,2,0,0,0-2.821-.2" fill="#9fcb56"/>
      <path id="パス_27211" data-name="パス 27211" d="M38.008,51.307a2,2,0,1,0,2.822.2h0a2,2,0,0,0-2.821-.2" fill="#9fcb56"/>
      <path id="パス_27212" data-name="パス 27212" d="M33.614,43.2a2,2,0,1,0,2.822.2h0a2,2,0,0,0-2.821-.2" fill="#9fcb56"/>
      <path id="パス_27213" data-name="パス 27213" d="M66.224,53.28a2,2,0,1,0,2.822.2h0a2,2,0,0,0-2.821-.2" fill="#9fcb56"/>
      <path id="パス_27214" data-name="パス 27214" d="M73.672,48.13a2,2,0,1,0,2.822.2h0a2,2,0,0,0-2.821-.2" fill="#9fcb56"/>
      <path id="パス_27215" data-name="パス 27215" d="M75.611,30.544a2,2,0,1,0,2.822.2h0a2,2,0,0,0-2.821-.2" fill="#9fcb56"/>
      <path id="パス_27216" data-name="パス 27216" d="M64.324,29.755a2,2,0,1,0,2.822.2h0a2,2,0,0,0-2.821-.2" fill="#acca6a"/>
      <path id="パス_27217" data-name="パス 27217" d="M60.975,47.243a2,2,0,1,0,2.822.2h0a2,2,0,0,0-2.821-.2" fill="#9fcb56"/>
      <path id="パス_27218" data-name="パス 27218" d="M64.324,29.755a2,2,0,1,0,2.822.2h0a2,2,0,0,0-2.821-.2" fill="#9fcb56"/>
      <path id="パス_27219" data-name="パス 27219" d="M75.246,56.037a2,2,0,1,0,2.822.2h0a2,2,0,0,0-2.821-.2" fill="#9fcb56"/>
      <path id="パス_27220" data-name="パス 27220" d="M83.71,56.629a2,2,0,1,0,2.822.2h0a2,2,0,0,0-2.821-.2" fill="#9fcb56"/>
      <path id="パス_27221" data-name="パス 27221" d="M93.783,54.5a2,2,0,1,0,2.821.2h0a2,2,0,0,0-2.821-.2" fill="#9fcb56"/>
      <path id="パス_27222" data-name="パス 27222" d="M46.276,54.72a2,2,0,1,0,2.822.2h0a2,2,0,0,0-2.821-.2" fill="#9fcb56"/>
      <path id="パス_27223" data-name="パス 27223" d="M78.5,39.962a2,2,0,1,0,2.822.2h0a2,2,0,0,0-2.821-.2" fill="#9fcb56"/>
      <path id="パス_27224" data-name="パス 27224" d="M59.5,37.924a2,2,0,1,0,2.822.2h0a2,2,0,0,0-2.821-.2" fill="#9fcb56"/>
      <path id="パス_27225" data-name="パス 27225" d="M101.232,49.348a2,2,0,1,0,2.822.2h0a2,2,0,0,0-2.821-.2" fill="#9fcb56"/>
    </g>
  </g>
</svg>
