<svg xmlns="http://www.w3.org/2000/svg" width="61.109" height="44.075" viewBox="0 0 61.109 44.075">
  <path id="パス_27226" data-name="パス 27226" d="M60.442,3.047c-2.667-4.619-12.553-3.9-22.08,1.6a37.354,37.354,0,0,0-7.807,5.932,37.38,37.38,0,0,0-7.807-5.932C13.22-.858,3.335-1.572.668,3.047S3.562,15.87,13.09,21.371a35.674,35.674,0,0,0,11.035,4.241,15.081,15.081,0,0,0,2.311.371,5.65,5.65,0,0,1,1.144,3.411,6.351,6.351,0,0,1-2,4.8,5.251,5.251,0,0,0-1.938,3.657,6.006,6.006,0,0,0,1.856,4.359,5.488,5.488,0,0,0,3.847,1.863h.122a5.01,5.01,0,0,0,3.583-1.863,17.115,17.115,0,0,0,5.339-12.818,17.287,17.287,0,0,0-.466-3.972,36.518,36.518,0,0,0,10.1-4.051c9.527-5.5,15.089-13.705,12.422-18.324" transform="translate(0 0)" fill="#67be91"/>
</svg>
