<svg xmlns="http://www.w3.org/2000/svg" width="30" height="23.25" viewBox="0 0 30 23.25">
  <path id="パス_81353" data-name="パス 81353" d="M15-13.359a1.627,1.627,0,0,1-.328.938L12.328-9.562A1.464,1.464,0,0,1,11.156-9a1.49,1.49,0,0,1-.937-.328L7.5-11.484V.75a2.446,2.446,0,0,1-.656,1.594A2.446,2.446,0,0,1,5.25,3H-5.25a2.446,2.446,0,0,1-1.594-.656A2.446,2.446,0,0,1-7.5.75V-11.484l-2.766,2.156a1.14,1.14,0,0,1-.891.281,1.464,1.464,0,0,1-1.172-.562l-2.344-2.812A1.627,1.627,0,0,1-15-13.359a1.464,1.464,0,0,1,.563-1.172L-8.109-19.5a3.227,3.227,0,0,1,2.063-.75h1.641a4.346,4.346,0,0,0,1.5,2.672A4.559,4.559,0,0,0,0-16.5a4.559,4.559,0,0,0,2.906-1.078,4.346,4.346,0,0,0,1.5-2.672H6a3.29,3.29,0,0,1,2.109.75l6.328,4.969A1.464,1.464,0,0,1,15-13.359Z" transform="translate(15 20.25)" fill="#67be91"/>
</svg>
