<svg xmlns="http://www.w3.org/2000/svg" width="21" height="18" viewBox="0 0 21 18">
  <path id="パス_81350" data-name="パス 81350" d="M10.078-7.922l-7.5,7.5A1.564,1.564,0,0,1,1.5,0,1.564,1.564,0,0,1,.422-.422,1.564,1.564,0,0,1,0-1.5,1.564,1.564,0,0,1,.422-2.578L5.391-7.5H-9a1.46,1.46,0,0,1-1.078-.422A1.46,1.46,0,0,1-10.5-9a1.46,1.46,0,0,1,.422-1.078A1.46,1.46,0,0,1-9-10.5H5.391L.422-15.422A1.564,1.564,0,0,1,0-16.5a1.564,1.564,0,0,1,.422-1.078A1.564,1.564,0,0,1,1.5-18a1.564,1.564,0,0,1,1.078.422l7.5,7.5A1.564,1.564,0,0,1,10.5-9,1.564,1.564,0,0,1,10.078-7.922Z" transform="translate(10.5 18)" fill="#67be91"/>
</svg>
