<svg id="logo" xmlns="http://www.w3.org/2000/svg" xmlns:xlink="http://www.w3.org/1999/xlink" width="240" height="154.399" viewBox="0 0 240 154.399">
  <defs>
    <clipPath id="clip-path">
      <rect id="長方形_1815" data-name="長方形 1815" width="240" height="154.399" fill="none"/>
    </clipPath>
  </defs>
  <g id="グループ_38" data-name="グループ 38" clip-path="url(#clip-path)">
    <path id="パス_27312" data-name="パス 27312" d="M170.619,139.127a1.445,1.445,0,0,0,.4-.972,1.747,1.747,0,0,0-.4-1.071,1.445,1.445,0,0,0-.971-.4h-8.937a1.468,1.468,0,0,0-1.022.4,1.515,1.515,0,0,0-.453,1.071,1.251,1.251,0,0,0,.454.972,1.465,1.465,0,0,0,1.021.4h8.937a1.442,1.442,0,0,0,.971-.4" transform="translate(6.619 5.682)" fill="#ffac99"/>
    <path id="パス_27313" data-name="パス 27313" d="M160.712,133.989h8.937a1.415,1.415,0,0,0,1.02-.509,1.716,1.716,0,0,0,.354-1.016,1.578,1.578,0,0,0-.4-.971,1.442,1.442,0,0,0-.971-.4h-8.937a1.46,1.46,0,0,0-1.02.4,1.364,1.364,0,0,0-.455.971,1.507,1.507,0,0,0,.455,1.071,1.4,1.4,0,0,0,1.02.454" transform="translate(6.619 5.449)" fill="#ff5252"/>
    <path id="パス_27314" data-name="パス 27314" d="M155.89,124.389a1.146,1.146,0,0,0-1.069.508,1.586,1.586,0,0,0-.356.967v20.886a1.343,1.343,0,0,0,.373.937,1.3,1.3,0,0,0,1.052.436,1.46,1.46,0,0,0,1.021-.4,1.342,1.342,0,0,0,.4-.97V125.864a1.584,1.584,0,0,0-.356-.967,1.336,1.336,0,0,0-1.069-.508" transform="translate(6.421 5.171)" fill="#67be91"/>
    <path id="パス_27315" data-name="パス 27315" d="M170.858,125.161h-11.5a1.442,1.442,0,0,0-.972.4,1.306,1.306,0,0,0-.047,1.934,1.293,1.293,0,0,0,1.019.51h11.5a1.631,1.631,0,0,1,1.26.521,1.669,1.669,0,0,1,.478,1.264l-.1,15.517a.91.91,0,0,1-.3.635,1.413,1.413,0,0,1-1.087.451,1.729,1.729,0,0,1-.787-.161l.02-.019-.371-.371a1.4,1.4,0,0,0-2.084.049,1.313,1.313,0,0,0-.228,1.5l-.1.125,1.258,1.194v-.165a4.2,4.2,0,0,0,2.29.642,4.378,4.378,0,0,0,3.13-1.357,4.555,4.555,0,0,0,1.257-2.628V129.8a4.676,4.676,0,0,0-1.382-3.353,4.818,4.818,0,0,0-3.256-1.284" transform="translate(6.565 5.203)" fill="#ff5252"/>
    <path id="パス_27316" data-name="パス 27316" d="M182.24,109.561h0a1.718,1.718,0,0,0-1.016-.354H147.887a1.376,1.376,0,0,0-1.375,1.375,2.165,2.165,0,0,0,.305,1.016,1.333,1.333,0,0,0,1.07.508h6.426a.8.8,0,0,1,.831.5.843.843,0,0,1-.123.951l-1.405,1.255a4.425,4.425,0,0,0-1.029,3.051,4.327,4.327,0,0,0,.337,1.649l.04.064a2.252,2.252,0,0,0,.523.849,4.67,4.67,0,0,0,1.557,1.2,4.761,4.761,0,0,0,2.532.68h8.786a1.405,1.405,0,0,0,1.022-.454,1.509,1.509,0,0,0,.453-1.071,1.53,1.53,0,0,0-.509-1.071,1.592,1.592,0,0,0-.966-.354h-8.786a2.048,2.048,0,0,1-1.74-.9c-.29-.29-.511-.678,0-1.32l4.822-4.771a.883.883,0,0,1,.635-.25h19.931a1.547,1.547,0,0,0,1.525-1.524,1.237,1.237,0,0,0-.508-1.02" transform="translate(6.09 4.54)" fill="#67be91"/>
    <path id="パス_27317" data-name="パス 27317" d="M174.726,113.928a1.371,1.371,0,0,0-2.04.044,1.429,1.429,0,0,0,.012,2.061l1.113,1.163a1.742,1.742,0,0,1,.55,1.237,1.605,1.605,0,0,1-.536,1.276l-.737.688a1.37,1.37,0,0,0,.021,2.019,1.484,1.484,0,0,0,1.051.488,1.6,1.6,0,0,0,1.066-.466l.617-.715a4.307,4.307,0,0,0,1.419-3.291,4.208,4.208,0,0,0-1.406-3.229Z" transform="translate(7.16 4.718)" fill="#67be91"/>
    <path id="パス_27318" data-name="パス 27318" d="M173.4,98.1c-.7-1.218-3.31-1.03-5.822.421a9.74,9.74,0,0,0-2.058,1.58,9.722,9.722,0,0,0-2.059-1.58c-2.512-1.451-5.119-1.638-5.822-.421s.763,3.381,3.276,4.832a9.4,9.4,0,0,0,2.887,1.11,3.624,3.624,0,0,0,.631.105,1.49,1.49,0,0,1,.3.9,1.676,1.676,0,0,1-.529,1.267,1.389,1.389,0,0,0-.511.965,1.585,1.585,0,0,0,.49,1.149,1.446,1.446,0,0,0,1.014.492h.032a1.32,1.32,0,0,0,.945-.492,4.513,4.513,0,0,0,1.408-3.38,4.589,4.589,0,0,0-.13-1.048,9.6,9.6,0,0,0,2.671-1.068c2.512-1.451,3.979-3.614,3.276-4.832" transform="translate(6.545 4.045)" fill="#9fcb56"/>
    <path id="パス_27319" data-name="パス 27319" d="M53.705,108.7a1.589,1.589,0,0,0,.964.355h2.31a1.064,1.064,0,0,1,.635.247.918.918,0,0,1,.3.637v2.36a1.247,1.247,0,0,0,.454.971,1.233,1.233,0,0,0,.92.4,1.592,1.592,0,0,0,.966-.354,1.3,1.3,0,0,0,.509-1.02v-2.36a1.059,1.059,0,0,1,.249-.635.765.765,0,0,1,.586-.249h2.309a1.751,1.751,0,0,0,1.072-.4,1.513,1.513,0,0,0,.453-1.071,1.583,1.583,0,0,0-.356-.966l-.1-.1a1.764,1.764,0,0,0-1.066-.355H61.6a.828.828,0,0,1-.63-.289.658.658,0,0,1-.205-.5v-2.41a1.44,1.44,0,0,0-.509-1.07,1.585,1.585,0,0,0-.966-.355,1.233,1.233,0,0,0-.92.4,1.587,1.587,0,0,0-.35.5h-.154v.521c0,1.3,0,2.023.05,2.425a.526.526,0,0,1-.265.488,1.086,1.086,0,0,1-.671.281H54.67a1.464,1.464,0,0,0-1.021.4,1.513,1.513,0,0,0-.453,1.072,1.333,1.333,0,0,0,.509,1.07" transform="translate(2.211 4.221)" fill="#ff5252"/>
    <path id="パス_27320" data-name="パス 27320" d="M71.87,108.656a1.345,1.345,0,0,0,.971.4H75.15a1.058,1.058,0,0,1,.635.247.916.916,0,0,1,.3.637v2.36a1.443,1.443,0,0,0,.4.971,1.346,1.346,0,0,0,.971.4,1.751,1.751,0,0,0,1.071-.4,1.444,1.444,0,0,0,.4-.971v-2.36a1.059,1.059,0,0,1,.249-.635.765.765,0,0,1,.586-.249h2.309a1.79,1.79,0,0,0,1.121-.4,1.51,1.51,0,0,0,.4-1.072,1.478,1.478,0,0,0-.459-1.07,1.762,1.762,0,0,0-1.066-.355H79.769a.886.886,0,0,1-.616-.315.554.554,0,0,1-.22-.47v-2.41a1.59,1.59,0,0,0-.355-.967l-.1-.1a1.472,1.472,0,0,0-2.034.1,1.593,1.593,0,0,0-.355.967v2.41a.529.529,0,0,1-.265.5,1.086,1.086,0,0,1-.671.281H72.841a1.344,1.344,0,0,0-.971.4,1.516,1.516,0,0,0-.454,1.072,1.289,1.289,0,0,0,.454,1.021" transform="translate(2.969 4.221)" fill="#ffac99"/>
    <path id="パス_27321" data-name="パス 27321" d="M70.344,136.529a.844.844,0,0,1,.585-.249H78.36a1.353,1.353,0,0,0,1.12-.51,1.591,1.591,0,0,0,.354-.964,1.487,1.487,0,0,0-.459-1.071,1.718,1.718,0,0,0-1.014-.353H70.93a.807.807,0,0,1-.622-.333.71.71,0,0,1-.264-.552v-.7a1.887,1.887,0,0,0-.256-.886l-.1-.133a1.508,1.508,0,0,0-1.073-.455,1.61,1.61,0,0,0-1.02.4,1.5,1.5,0,0,0-.454,1.071v.7a1.091,1.091,0,0,1-.289.678.59.59,0,0,1-.5.207H58.478a1.592,1.592,0,0,0-.966.354,1.336,1.336,0,0,0-.508,1.07,1.558,1.558,0,0,0,1.474,1.475H66.36a.656.656,0,0,1,.5.206l.082.081a.711.711,0,0,1,.206.547v10.393a1.536,1.536,0,0,0,.509,1.12,1.582,1.582,0,0,0,.964.355,1.707,1.707,0,0,0,1.016-.356l.1-.073.055-.109a2.1,2.1,0,0,0,.256-.936V144.7a.816.816,0,0,1,.561-.816.793.793,0,0,1,.912.182l2.808,2.759a4.294,4.294,0,0,0,3,1.3v.005l1,.05.547-.023v-.107a1.348,1.348,0,0,0,.953-1.294,1.282,1.282,0,0,0-.354-.916,1.355,1.355,0,0,0-1.12-.509h-.753a1.868,1.868,0,0,1-1.131-.438l-.459-.362L70.293,138.8a.844.844,0,0,1-.249-.584v-1.105a.682.682,0,0,1,.3-.585" transform="translate(2.37 5.417)" fill="#67be91"/>
    <path id="パス_27322" data-name="パス 27322" d="M88.966,116.962l-.049-.056a1.378,1.378,0,0,0-.5-.311v-.142H78.106a1.073,1.073,0,0,1-.621-.282.608.608,0,0,1-.264-.5V113.86a1.744,1.744,0,0,0-.4-1.071,1.467,1.467,0,0,0-2.039.055,1.707,1.707,0,0,0-.355,1.016v1.808a.611.611,0,0,1-.266.5,1.072,1.072,0,0,1-.62.281H70.575a.657.657,0,0,1-.5-.207L70,116.17a.608.608,0,0,1-.264-.5V113.86a1.744,1.744,0,0,0-.4-1.071,1.62,1.62,0,0,0-2.091,0l-.1.135a2.1,2.1,0,0,0-.256.935v1.808a.716.716,0,0,1-.215.5,1.093,1.093,0,0,1-.721.281H64.551a.884.884,0,0,1-.6-.208.919.919,0,0,1-.237-.576V113.86a1.749,1.749,0,0,0-.4-1.071,1.62,1.62,0,0,0-2.091,0,1.5,1.5,0,0,0-.455,1.071v1.808a.687.687,0,0,1-.2.534.883.883,0,0,1-.635.25l-9.881,0a1.415,1.415,0,0,0-1.433,1.522,1.18,1.18,0,0,0,.453.972,1.467,1.467,0,0,0,1.021.4h9.841a.891.891,0,0,1,.6.214,1.055,1.055,0,0,1,.23.722v4.87a4.522,4.522,0,0,0,1.42,3.341,4.655,4.655,0,0,0,3.319,1.347h2.359a1.37,1.37,0,0,0,1.525-1.425,1.539,1.539,0,0,0-.509-1.12,1.717,1.717,0,0,0-1.016-.355H65.5a1.732,1.732,0,0,1-1.311-.521,1.576,1.576,0,0,1-.478-1.268v-4.87a1.386,1.386,0,0,1,.2-.686.892.892,0,0,1,.636-.249h1.405a1.113,1.113,0,0,1,.654.214,1.1,1.1,0,0,1,.281.722v1.606a4.111,4.111,0,0,0,1.347,3.219,4.3,4.3,0,0,0,3.291,1.419h1.054a4.632,4.632,0,0,0,4.638-4.638v-1.606a.9.9,0,0,1,.264-.654,1.111,1.111,0,0,1,.621-.281H87.9a1.465,1.465,0,0,0,1.021-.4,1.344,1.344,0,0,0,.4-.972,1.715,1.715,0,0,0-.354-1.014m-16.383,6.72H71.529a1.734,1.734,0,0,1-1.268-.528,1.921,1.921,0,0,1-.521-1.261v-1.606a.982.982,0,0,1,.336-.728.661.661,0,0,1,.5-.207h2.962a1.075,1.075,0,0,1,.585.249.926.926,0,0,1,.3.686v1.606a1.768,1.768,0,0,1-.572,1.261,1.683,1.683,0,0,1-1.268.528" transform="translate(2.021 4.672)" fill="#67be91"/>
    <path id="パス_27323" data-name="パス 27323" d="M65.3,137.758a1.668,1.668,0,0,0-2.036-.049,1.232,1.232,0,0,0-.509,1.02v1.355a2.292,2.292,0,0,1-.309,1.1l-.644.626a6.953,6.953,0,0,0-3.095,1.638c-1.855,1.608-2.728,3.641-1.948,4.541s2.915.325,4.771-1.283a7.268,7.268,0,0,0,1.987-2.608l.724-.733a4.446,4.446,0,0,0,1.462-3.285v-1.355a1.351,1.351,0,0,0-.4-.971" transform="translate(2.347 5.711)" fill="#9fcb56"/>
    <path id="パス_27324" data-name="パス 27324" d="M119.964,122.878h9.288a4.342,4.342,0,0,0,3.292-1.369,4.656,4.656,0,0,0,1.346-3.319v-7.48a4.657,4.657,0,0,0-1.346-3.319l-.024-.023a4.7,4.7,0,0,0-3.268-1.3h-9.288a4.594,4.594,0,0,0-3.23,1.307,4.515,4.515,0,0,0-1.408,3.332v7.48a4.5,4.5,0,0,0,1.4,3.319,4.227,4.227,0,0,0,3.241,1.369m0-14.007h9.288a1.886,1.886,0,0,1,1.789,1.839v7.48a1.729,1.729,0,0,1-.529,1.268,1.909,1.909,0,0,1-1.26.521h-9.288a1.666,1.666,0,0,1-1.188-.5,1.754,1.754,0,0,1-.55-1.289v-7.48a1.752,1.752,0,0,1,.55-1.288,1.55,1.55,0,0,1,1.188-.551" transform="translate(4.794 4.409)" fill="#ff5252"/>
    <path id="パス_27325" data-name="パス 27325" d="M109.229,109.657a1.554,1.554,0,0,0-2.084.1,1.709,1.709,0,0,0-.356,1.016v3.464a1.776,1.776,0,0,1-.279,1.019l-12.349,12.4a1.372,1.372,0,0,0-.512.989,1.454,1.454,0,0,0,.491,1.075,1.259,1.259,0,0,0,1.994,0l4.316-4.366a.837.837,0,0,1,1.227.005l1.677,1.626a2.339,2.339,0,0,1,.577,1.106l.048,17.128a1.289,1.289,0,0,0,.355.917,1.336,1.336,0,0,0,1.07.508,1.493,1.493,0,0,0,1.02-.453,1.348,1.348,0,0,0,.4-.974l-.05-16.918a4.719,4.719,0,0,0-1.319-3.291l-1.7-1.6a1.584,1.584,0,0,1-.247-.73.822.822,0,0,1,.2-.537l4.5-4.556a4.384,4.384,0,0,0,1.47-3.341v-3.464a1.515,1.515,0,0,0-.4-1.072Z" transform="translate(3.893 4.544)" fill="#ffac99"/>
    <path id="パス_27326" data-name="パス 27326" d="M139.048,144.2l-.105-.1a1.5,1.5,0,0,0-.916-.305h-1.455a1.562,1.562,0,0,1-1.026-.333l-.514-.416-8.586-8.637a.851.851,0,0,1-.249-.586v-1.154a.691.691,0,0,1,.249-.535.889.889,0,0,1,.636-.25h6.777a1.437,1.437,0,0,0,.97-.4,1.51,1.51,0,0,0,.4-1.072,1.71,1.71,0,0,0-.355-1.017l-.127-.12a1.747,1.747,0,0,0-.892-.289h-6.777a.854.854,0,0,1-.885-.885v-2.912a2.141,2.141,0,0,0-.255-.934l-.055-.111-.1-.074a1.558,1.558,0,0,0-2.036.1,1.4,1.4,0,0,0-.454,1.02V128.1a.934.934,0,0,1-.287.678.655.655,0,0,1-.5.207h-6.727a1.758,1.758,0,0,0-.942.289l-.127.12a1.712,1.712,0,0,0-.356,1.017,1.412,1.412,0,0,0,.355.964,1.331,1.331,0,0,0,1.07.509h6.727a.664.664,0,0,1,.5.207l.08.079a.664.664,0,0,1,.206.5V147.88a1.342,1.342,0,0,0,.533,1.085,1.768,1.768,0,0,0,.942.29,2.1,2.1,0,0,0,.936-.256l.124-.062.076-.115a1.766,1.766,0,0,0,.288-.942V140.3c0-.131,0-.532.6-.831.273-.125.5-.122.875.249l5.609,5.508a4.415,4.415,0,0,0,3.291,1.42h1.455a1.53,1.53,0,0,0,.916-.355l.105-.1a1.6,1.6,0,0,0,.354-.964,1.723,1.723,0,0,0-.354-1.017" transform="translate(4.754 5.144)" fill="#9fcb56"/>
    <path id="パス_27327" data-name="パス 27327" d="M121.278,134.248a1.464,1.464,0,0,0-.4-1.022l-.134-.1a1.58,1.58,0,0,0-1.907.1,1.4,1.4,0,0,0-.454,1.021v2.008a1.65,1.65,0,0,1-.3,1.037l-.023.024a8.495,8.495,0,0,0-4.644,2.623c-2.342,2.344-3.322,5.164-2.185,6.3s3.957.157,6.3-2.185a8.205,8.205,0,0,0,2.634-4.824,4.569,4.569,0,0,0,1.118-2.976Z" transform="translate(4.604 5.523)" fill="#67be91"/>
    <path id="パス_27328" data-name="パス 27328" d="M230.6,109.154l-.01-.011a4.6,4.6,0,0,0-3.27-1.347h-29.27a4.29,4.29,0,0,0-3.28,1.408,4.544,4.544,0,0,0-1.358,3.28v32.8a4.548,4.548,0,0,0,1.358,3.281,4.485,4.485,0,0,0,3.28,1.357h29.27a4.6,4.6,0,0,0,3.28-1.357,4.548,4.548,0,0,0,1.358-3.281v-32.8a4.542,4.542,0,0,0-1.358-3.33m-3.28,37.915h-29.27a1.583,1.583,0,0,1-1.238-.55,1.613,1.613,0,0,1-.5-1.239v-32.8a1.694,1.694,0,0,1,.521-1.261,1.562,1.562,0,0,1,1.218-.528h29.27a1.655,1.655,0,0,1,1.238.55,1.742,1.742,0,0,1,.55,1.239v32.8a1.886,1.886,0,0,1-1.788,1.789" transform="translate(8.04 4.481)" fill="#67be91"/>
    <path id="パス_27329" data-name="パス 27329" d="M217.746,135.486c.669.772,2.5.279,4.094-1.1s2.34-3.125,1.672-3.9-2.5-.279-4.094,1.1-2.34,3.124-1.672,3.9" transform="translate(9.041 5.409)" fill="#9fcb56"/>
    <path id="パス_27330" data-name="パス 27330" d="M216.7,134.848a1.471,1.471,0,0,0-1.685-.359,1.551,1.551,0,0,0-.958,1.426c-.089.285.045.409.778,1.092l.627.586a.98.98,0,0,1,.336.64.876.876,0,0,1-.349.594l-1.408,1.512a1.016,1.016,0,0,1-.671.231,1.727,1.727,0,0,1-1.748-1.643l.41-2.255a4.655,4.655,0,0,0-1.336-3.408.574.574,0,0,1-.211-.442h-1.019a4.394,4.394,0,0,1-2.609-.869l-5.825,5.78a1.28,1.28,0,0,0-.393,1.012,1.254,1.254,0,0,0,.586.877c.248.221,1.156.845,2.424-.425l3.763-3.813a1.063,1.063,0,0,1,1.229-.1,2.162,2.162,0,0,1,.494,1.129l.044.52-.432,1.775-.015.123a4.816,4.816,0,0,0,4.638,4.688,4.533,4.533,0,0,0,2.832-.964l.2-.241c.082-.09.218-.222.4-.4s.353-.339.508-.481.275-.251.409-.387a.782.782,0,0,1,.529-.3,1.267,1.267,0,0,1,.678.364l1.657,1.656a1.254,1.254,0,0,0,1.991,0l.019-.02a1.565,1.565,0,0,0,.471-1.13,1.357,1.357,0,0,0-.492-.944Z" transform="translate(8.34 5.485)" fill="#9fcb56"/>
    <path id="パス_27331" data-name="パス 27331" d="M224.24,120.907a1.386,1.386,0,0,0-.915-.3h-9.138a.691.691,0,0,1-.535-.249.891.891,0,0,1-.249-.637.66.66,0,0,1,.205-.5l.082-.081a.657.657,0,0,1,.5-.207h4.066a1.542,1.542,0,0,0,1.12-.508,1.712,1.712,0,0,0,.355-1.016,1.376,1.376,0,0,0-.459-1.02,1.715,1.715,0,0,0-1.016-.355h-4.066a.628.628,0,0,1-.535-.3.889.889,0,0,1-.249-.636v-1.406a1.716,1.716,0,0,0-.355-1.014l-.105-.105a1.559,1.559,0,0,0-2.084.105,1.716,1.716,0,0,0-.355,1.014V115.1a.923.923,0,0,1-.281.671.745.745,0,0,1-.6.265h-3.263a1.589,1.589,0,0,0-.964.355,1.231,1.231,0,0,0-.509,1.02,1.508,1.508,0,0,0,.454,1.072,1.4,1.4,0,0,0,1.02.452h3.263a.939.939,0,0,1,.68.289.664.664,0,0,1,.205.5.852.852,0,0,1-.885.886h-8.033a1.3,1.3,0,0,0-1.374,1.374,1.417,1.417,0,0,0,.305,1.017,1.331,1.331,0,0,0,1.069.508h21.74a1.182,1.182,0,0,0,.971-.453,1.514,1.514,0,0,0,.4-1.072,1.484,1.484,0,0,0-.459-1.07" transform="translate(8.322 4.665)" fill="#ff5252"/>
    <path id="パス_27332" data-name="パス 27332" d="M215.181,133.234h-5.9a4.863,4.863,0,0,1-4.857-4.858V127.9a4.863,4.863,0,0,1,4.857-4.857h5.9a4.863,4.863,0,0,1,4.858,4.857v.479a4.863,4.863,0,0,1-4.858,4.858m-5.9-7.276a1.942,1.942,0,0,0-1.94,1.939v.479a1.943,1.943,0,0,0,1.94,1.941h5.9a1.943,1.943,0,0,0,1.941-1.941V127.9a1.942,1.942,0,0,0-1.941-1.939Z" transform="translate(8.497 5.115)" fill="#ffac99"/>
    <path id="パス_27333" data-name="パス 27333" d="M8.06,110.822h3.012a1.014,1.014,0,0,1,.671.23.746.746,0,0,1,.265.6v3.012a1.508,1.508,0,0,0,.4,1.014,1.1,1.1,0,0,0,.975.51,1.4,1.4,0,0,0,1.022-.453,1.513,1.513,0,0,0,.453-1.072v-3.012a.937.937,0,0,1,.289-.679.735.735,0,0,1,.547-.155h2.259a1.306,1.306,0,0,0,1.071-.455,1.509,1.509,0,0,0,.4-1.071,1.481,1.481,0,0,0-.459-1.069,1.717,1.717,0,0,0-1.016-.355H15.691a.849.849,0,0,1-.572-.232.743.743,0,0,1-.264-.6v-3.011a1.478,1.478,0,0,0-.459-1.07,1.585,1.585,0,0,0-1.985.048,1.468,1.468,0,0,0-.4,1.022v3.011a.9.9,0,0,1-.206.59,1.586,1.586,0,0,1-.729.246H8.06a1.582,1.582,0,0,0-.964.355,1.33,1.33,0,0,0-.51,1.069,1.365,1.365,0,0,0,.452,1.073,1.339,1.339,0,0,0,1.023.453" transform="translate(0.274 4.266)" fill="#9fcb56"/>
    <path id="パス_27334" data-name="パス 27334" d="M22.806,110.822h2.259a1.055,1.055,0,0,1,.686.2.892.892,0,0,1,.249.636v3.012a1.5,1.5,0,0,0,.4,1.014,1.1,1.1,0,0,0,.975.51,1.484,1.484,0,0,0,1.071-.5,1.4,1.4,0,0,0,.454-1.021v-3.012a.855.855,0,0,1,.287-.68.67.67,0,0,1,.5-.154H32.8a1.175,1.175,0,0,0,.971-.455,1.509,1.509,0,0,0,.4-1.071,1.461,1.461,0,0,0-.4-1.02,1.343,1.343,0,0,0-.971-.4H29.684a.821.821,0,0,1-.536-.2.89.89,0,0,1-.248-.635v-3.011a1.439,1.439,0,0,0-.51-1.071,1.469,1.469,0,0,0-1.946.054A1.346,1.346,0,0,0,26,104.026v3.011a.97.97,0,0,1-.17.571,1.37,1.37,0,0,1-.766.265H22.806a1.443,1.443,0,0,0-.971.4,1.558,1.558,0,0,0-.049,2.035,1.3,1.3,0,0,0,1.02.51" transform="translate(0.891 4.266)" fill="#ffac99"/>
    <path id="パス_27335" data-name="パス 27335" d="M32.66,121.119c-2.93,0-5.443.861-6.528,2.089h-6.1c-.312,0-.52-.093-.74-.616a.666.666,0,0,1,.206-.856l3.813-3.864A1.456,1.456,0,0,0,23.8,116.8a1.371,1.371,0,0,0-.513-.988,1.345,1.345,0,0,0-1.833-.182h-.086l-7.212,7.317a.742.742,0,0,1-.6.265l-10.447.009a2.526,2.526,0,0,0-2.329.607,2.442,2.442,0,0,0-.748,2.364v3.765a4.4,4.4,0,0,0,1.4,3.27,4.3,4.3,0,0,0,3.291,1.419,4.261,4.261,0,0,0,2.826-1.053l7.334-7.233a.761.761,0,0,1,.584-.249H26.328C27.5,127.23,29.89,128,32.66,128c3.919,0,7.1-1.54,7.1-3.441s-3.178-3.441-7.1-3.441m-23.037,6.46-4.082,4.085a1.238,1.238,0,0,1-1.426.22,1.854,1.854,0,0,1-1.184-1.929V128a1.723,1.723,0,0,1,.53-1.319,2.062,2.062,0,0,1,1.359-.57H8.937a.8.8,0,0,1,.889.566.753.753,0,0,1-.2.905" transform="translate(0 4.795)" fill="#67be91"/>
    <path id="パス_27336" data-name="パス 27336" d="M15.85,148.908h9.288a4.342,4.342,0,0,0,3.292-1.369,4.657,4.657,0,0,0,1.346-3.319v-7.481a4.657,4.657,0,0,0-1.346-3.319l-.024-.023a4.7,4.7,0,0,0-3.268-1.3H15.85a4.589,4.589,0,0,0-3.23,1.307,4.513,4.513,0,0,0-1.408,3.331v7.481a4.5,4.5,0,0,0,1.4,3.319,4.227,4.227,0,0,0,3.241,1.369m0-14.007h9.288a1.884,1.884,0,0,1,1.789,1.838v7.481a1.729,1.729,0,0,1-.529,1.268,1.909,1.909,0,0,1-1.26.521H15.85a1.666,1.666,0,0,1-1.188-.5,1.754,1.754,0,0,1-.55-1.289v-7.481a1.752,1.752,0,0,1,.55-1.288,1.548,1.548,0,0,1,1.188-.55" transform="translate(0.466 5.491)" fill="#ff5252"/>
    <path id="パス_27337" data-name="パス 27337" d="M165.859,56.267c-.324-.034-.646-.056-.968-.064-.169,0-.337-.008-.505-.005-.133,0-.267.009-.4.017-.223.014-.445.034-.665.059-.127.016-.254.029-.38.048-.243.036-.483.084-.722.136-.1.021-.2.037-.293.061-.33.081-.658.176-.979.285-.067.023-.13.052-.2.076-.254.093-.506.192-.753.3-.111.05-.22.105-.329.158-.2.1-.4.2-.589.3-.115.064-.228.131-.341.2q-.277.167-.544.35c-.106.072-.212.144-.317.219-.19.14-.373.286-.554.437-.082.068-.167.132-.247.2-.255.225-.5.459-.738.706-.03.032-.057.068-.087.1q-.306.328-.586.681c-.073.092-.14.187-.209.28-.137.186-.273.375-.4.571-.072.109-.14.221-.207.333-.117.192-.227.389-.332.588-.061.117-.123.232-.18.351-.105.219-.2.444-.294.671-.043.106-.09.209-.13.317-.125.339-.24.683-.334,1.038-.076.283-.129.568-.183.852-.034.2-.067.394-.093.59a44.492,44.492,0,0,0,15.7-9.066,11.161,11.161,0,0,0-1.386-.482,11.533,11.533,0,0,0-1.352-.269c-.137-.02-.274-.031-.41-.046" transform="translate(6.373 2.336)" fill="#fc7777"/>
    <path id="パス_27338" data-name="パス 27338" d="M113.292,2.379c.5,2.107-2.614,4.654-6.961,5.688s-8.275.166-8.776-1.941,2.614-4.654,6.96-5.689,8.275-.165,8.777,1.943" transform="translate(4.053 0)" fill="#67be91"/>
    <path id="パス_27339" data-name="パス 27339" d="M109.709,15.908c-.64,1.34-3.4,1.358-6.166.039s-4.489-3.477-3.85-4.817,3.4-1.358,6.166-.039,4.489,3.477,3.85,4.817" transform="translate(4.139 0.42)" fill="#67be91"/>
    <path id="パス_27340" data-name="パス 27340" d="M88.77,31.9c-1.275-2.745-4.94-3.745-8.187-2.237a7.639,7.639,0,0,0-1.619,1.022c1.079-2.2,2.382-4.311,3.328-4.545a.39.39,0,1,0-.187-.757c-1.862.461-3.989,5.117-4.862,7.218A14.382,14.382,0,0,0,76.2,34.412a14.638,14.638,0,0,0,.372-2.059c.687-2.169,2.063-7.1.937-8.651a.39.39,0,1,0-.631.457c.572.79.208,3.239-.387,5.62a7.631,7.631,0,0,0-.578-1.825c-1.509-3.246-4.956-4.843-7.7-3.568s-3.747,4.941-2.237,8.187A7.317,7.317,0,0,0,68.16,35.3c-1.95,1.116-2.875,3.286-2.056,5.047.873,1.877,3.38,2.562,5.6,1.53a6.1,6.1,0,0,0,2.851-2.971,6.108,6.108,0,0,0,.264,4.109c1.032,2.221,3.39,3.314,5.268,2.441,1.761-.819,2.454-3.075,1.683-5.184A7.31,7.31,0,0,0,85.2,39.6c3.246-1.508,4.843-4.956,3.568-7.7" transform="translate(2.713 0.979)" fill="#9fcb56"/>
    <path id="パス_27341" data-name="パス 27341" d="M170.158,57.551l-.352.323a43.744,43.744,0,0,1-7.085,5.181l5.66,9.8a.594.594,0,1,1-1.029.595l-5.659-9.8a43.692,43.692,0,0,1-8.029,3.543l-.457.145a11.459,11.459,0,1,0,16.952-9.787m-9.344,13.5a1.783,1.783,0,1,1,.653-2.435,1.782,1.782,0,0,1-.653,2.435m2.891,3.819a1.188,1.188,0,1,1,.435-1.624,1.187,1.187,0,0,1-.435,1.624m3.937-9.82a1.783,1.783,0,1,1,2.435.652,1.782,1.782,0,0,1-2.435-.652m4.3,5.066a1.189,1.189,0,1,1,.435-1.624,1.19,1.19,0,0,1-.435,1.624" transform="translate(6.368 2.392)" fill="#ff5252"/>
    <path id="パス_27342" data-name="パス 27342" d="M167.621,56.666a11.421,11.421,0,0,0-4.552-.283,1.685,1.685,0,1,0-3.262-.782l0-.007a4,4,0,0,0-3.171,1.831l.056.1a1.688,1.688,0,1,0-1.08,3.168,11.441,11.441,0,0,0-2.029,4.082,11.024,11.024,0,0,0-.275,1.443,44.542,44.542,0,0,0,15.7-9.066,11,11,0,0,0-1.386-.483" transform="translate(6.373 2.251)" fill="#ff5252"/>
    <path id="パス_27343" data-name="パス 27343" d="M116.532,22.639a3.006,3.006,0,1,1-3.007-3.007,3.007,3.007,0,0,1,3.007,3.007" transform="translate(4.594 0.816)" fill="#9fcb56"/>
    <path id="パス_27344" data-name="パス 27344" d="M95.1,62.656a3.006,3.006,0,1,1-3.007-3.007A3.007,3.007,0,0,1,95.1,62.656" transform="translate(3.703 2.48)" fill="#67be91"/>
    <path id="パス_27345" data-name="パス 27345" d="M83.462,70.867l.343-.343a5.917,5.917,0,0,0-8.369-8.368l-.343.343-.343-.343a5.917,5.917,0,0,0-8.368,8.368l.343.343-.343.343a5.917,5.917,0,0,0,8.368,8.369l.343-.343.343.343A5.918,5.918,0,0,0,83.8,71.209Zm-6.044,2.325a3.288,3.288,0,1,1,0-4.65,3.287,3.287,0,0,1,0,4.65" transform="translate(2.687 2.512)" fill="#ff5252"/>
    <path id="パス_27346" data-name="パス 27346" d="M173.868,47a3.006,3.006,0,1,1-3.007-3.007A3.007,3.007,0,0,1,173.868,47" transform="translate(6.977 1.829)" fill="#9fcb56"/>
    <path id="パス_27347" data-name="パス 27347" d="M57.794,69.8a3.006,3.006,0,1,1,3.4-2.553,3.006,3.006,0,0,1-3.4,2.553" transform="translate(2.295 2.653)" fill="#ffac99"/>
    <path id="パス_27348" data-name="パス 27348" d="M87.068,49.416h-.252v-.252a3.077,3.077,0,1,0-6.154,0v.252H80.41a3.077,3.077,0,1,0,0,6.155h.252v.252a3.077,3.077,0,1,0,6.154,0V55.57h.252a3.077,3.077,0,1,0,0-6.155M83.739,54.2a1.71,1.71,0,1,1,1.709-1.709A1.71,1.71,0,0,1,83.739,54.2" transform="translate(3.215 1.916)" fill="#ffac99"/>
    <path id="パス_27349" data-name="パス 27349" d="M171.142,31.857c-2.778-4.811-13.075-4.067-23,1.662a38.907,38.907,0,0,0-8.132,6.179,38.935,38.935,0,0,0-8.132-6.179c-9.924-5.73-20.22-6.473-23-1.662s3.014,13.356,12.938,19.086a37.157,37.157,0,0,0,11.494,4.417,15.709,15.709,0,0,0,2.407.386,5.885,5.885,0,0,1,1.192,3.553,6.615,6.615,0,0,1-2.087,5,5.469,5.469,0,0,0-2.019,3.809,6.255,6.255,0,0,0,1.933,4.54,5.716,5.716,0,0,0,4.007,1.94h.127a5.218,5.218,0,0,0,3.732-1.94A17.826,17.826,0,0,0,148.169,59.3a18.006,18.006,0,0,0-.485-4.137A38.035,38.035,0,0,0,158.2,50.942c9.923-5.73,15.716-14.275,12.938-19.086" transform="translate(4.497 1.192)" fill="#67be91"/>
    <path id="パス_27350" data-name="パス 27350" d="M157.725,18.826c-.24-.056-.484-.082-.724-.134-.152-.034-.117-.011-.165-.147-.03-.084-.045-.174-.078-.258a2.3,2.3,0,0,0-.688-.928,3.533,3.533,0,0,0-1.319-.605c-.445-.12-.941,0-1.408-.322a6.532,6.532,0,0,0-3.125-4.659,10.829,10.829,0,0,0-1.058-.6,8.211,8.211,0,0,0-2.16-.73,7.516,7.516,0,0,0-1.162-.118q-.3-.008-.606.009c-.134.007-.407-.033-.494.093-.1.15.093.412.165.542.106.191.224.374.342.556a4.848,4.848,0,0,1,.563,1.064,7.532,7.532,0,0,1,.544,2.5,5.529,5.529,0,0,1-.2,2.381,3.305,3.305,0,0,1-1.314.032c-.233-.019-.466-.055-.7-.056a.5.5,0,0,0-.537.5c-.009.895-.019,1.792.021,2.684.023.529.282.709.863.713.541,0,1.082,0,1.678,0a4.9,4.9,0,0,1-.628,3.554,7.67,7.67,0,0,1-1.181,1.443,1.188,1.188,0,0,0-.381.7.457.457,0,0,0,.339.528,3.108,3.108,0,0,0,.461.06,15.239,15.239,0,0,0,5.081-.536,4.909,4.909,0,0,0,2.939-2.156,6.214,6.214,0,0,0,.574-1.4,5.886,5.886,0,0,1,.456-1.431c.307-.46.973-.42,1.457-.66a4.008,4.008,0,0,0,.925-.545,3.023,3.023,0,0,0,.535-.985.818.818,0,0,1,.134-.218.9.9,0,0,1,.373-.187,3.134,3.134,0,0,0,.559-.259c.083-.05.174-.122.168-.219-.007-.115-.142-.17-.253-.2m-2.568.575a.371.371,0,0,1-.4.3.349.349,0,0,1-.273-.415c.034-.195.232-.359.395-.305a.379.379,0,0,1,.282.421" transform="translate(5.969 0.429)" fill="#ffac99"/>
    <path id="パス_27351" data-name="パス 27351" d="M144.3,14.448c-.357-.084-.722-.123-1.079-.2-.227-.05-.173-.017-.245-.219-.045-.126-.068-.259-.117-.384a3.436,3.436,0,0,0-1.026-1.384,5.267,5.267,0,0,0-1.965-.9c-.662-.179-1.4,0-2.1-.48a9.735,9.735,0,0,0-4.657-6.942,16.161,16.161,0,0,0-1.577-.9,12.227,12.227,0,0,0-3.221-1.087,11.1,11.1,0,0,0-1.731-.176c-.3-.007-.6,0-.9.014-.2.011-.607-.049-.736.139-.153.223.139.615.246.807.158.283.333.556.508.829a7.214,7.214,0,0,1,.841,1.586,11.253,11.253,0,0,1,.811,3.719c-.023,1.193.241,2.421-.294,3.549a4.958,4.958,0,0,1-1.96.048c-.347-.028-.694-.082-1.039-.084a.741.741,0,0,0-.8.74c-.014,1.333-.027,2.668.031,4,.034.788.421,1.057,1.286,1.063.806.006,1.612,0,2.5,0a7.3,7.3,0,0,1-.936,5.3,11.407,11.407,0,0,1-1.76,2.149,1.771,1.771,0,0,0-.568,1.046.68.68,0,0,0,.5.786,4.387,4.387,0,0,0,.688.09,22.7,22.7,0,0,0,7.571-.8,7.318,7.318,0,0,0,4.382-3.213,9.338,9.338,0,0,0,.855-2.082,8.807,8.807,0,0,1,.679-2.134c.458-.684,1.45-.625,2.171-.983a5.933,5.933,0,0,0,1.379-.811,4.524,4.524,0,0,0,.8-1.469,1.165,1.165,0,0,1,.2-.325,1.35,1.35,0,0,1,.556-.279,4.553,4.553,0,0,0,.833-.387c.124-.073.259-.18.251-.324-.011-.172-.211-.254-.378-.294m-3.827.856a.555.555,0,0,1-.6.445.519.519,0,0,1-.406-.618c.05-.29.346-.534.587-.454a.567.567,0,0,1,.422.627" transform="translate(5.123 0.074)" fill="#9fcb56"/>
    <path id="パス_27352" data-name="パス 27352" d="M93.986,10.9h-.336v-.336a4.107,4.107,0,1,0-8.214,0V10.9H85.1a4.107,4.107,0,1,0,0,8.215h.336v.335a4.107,4.107,0,1,0,8.214,0v-.335h.336a4.107,4.107,0,1,0,0-8.215m-4.443,6.389a2.282,2.282,0,1,1,2.282-2.282,2.282,2.282,0,0,1-2.282,2.282" transform="translate(3.367 0.269)" fill="#ff5252"/>
    <path id="パス_27353" data-name="パス 27353" d="M117.37,10.978a3.006,3.006,0,1,1,3.4-2.553,3.006,3.006,0,0,1-3.4,2.553" transform="translate(4.771 0.208)" fill="#ffac99"/>
    <path id="パス_27354" data-name="パス 27354" d="M106.109,39.492c1.082,1.874-1.175,5.2-5.04,7.435s-7.876,2.522-8.959.648,1.174-5.2,5.04-7.435,7.876-2.522,8.959-.648" transform="translate(3.818 1.59)" fill="#9fcb56"/>
    <path id="パス_27355" data-name="パス 27355" d="M104.694,53.566c-.185,1.307-2.521,2.056-5.215,1.673s-4.728-1.753-4.542-3.059,2.521-2.055,5.215-1.672,4.728,1.753,4.542,3.058" transform="translate(3.946 2.095)" fill="#9fcb56"/>
    <path id="パス_27356" data-name="パス 27356" d="M64.031,59.38c-1.984.576-4.555-2.275-5.742-6.367s-.541-7.876,1.443-8.452,4.555,2.276,5.742,6.368.542,7.875-1.443,8.451" transform="translate(2.398 1.849)" fill="#67be91"/>
    <path id="パス_27357" data-name="パス 27357" d="M70.067,54.607c-1.057-.51-1.06-2.692-.006-4.872s2.764-3.534,3.822-3.024,1.06,2.692.006,4.873-2.764,3.533-3.822,3.023" transform="translate(2.88 1.937)" fill="#67be91"/>
    <path id="パス_27358" data-name="パス 27358" d="M103.679,26.546l.178-.178A3.077,3.077,0,1,0,99.5,22.016l-.178.178-.178-.178A3.077,3.077,0,0,0,94.8,26.368l.178.178-.178.178a3.077,3.077,0,0,0,4.352,4.353l.178-.178.178.178a3.078,3.078,0,1,0,4.353-4.353Zm-3.143,1.209a1.709,1.709,0,1,1,0-2.417,1.709,1.709,0,0,1,0,2.417" transform="translate(3.903 0.878)" fill="#ffac99"/>
    <path id="パス_27359" data-name="パス 27359" d="M153.48,75.818c.486,1.38-1.427,3.312-4.274,4.315s-5.548.7-6.035-.682,1.427-3.312,4.274-4.315,5.548-.7,6.035.682" transform="translate(5.948 3.099)" fill="#9fcb56"/>
  </g>
</svg>
