<svg xmlns="http://www.w3.org/2000/svg" width="199.48" height="61" viewBox="0 0 199.48 61">
  <path id="交差_7" data-name="交差 7" d="M-1979.74-653.6a112.082,112.082,0,0,1,6.868-11.621A112.84,112.84,0,0,1-1959.2-681.8a112.787,112.787,0,0,1,16.576-13.676A112.013,112.013,0,0,1-1923.6-705.8a111.5,111.5,0,0,1,21.024-6.526A112.8,112.8,0,0,1-1880-714.6a112.812,112.812,0,0,1,22.572,2.275,111.471,111.471,0,0,1,21.023,6.526,111.983,111.983,0,0,1,19.025,10.327A112.839,112.839,0,0,1-1800.8-681.8a112.831,112.831,0,0,1,13.675,16.575,112.1,112.1,0,0,1,6.868,11.621Z" transform="translate(1979.74 714.601)" fill="#fcfcec"/>
</svg>
