<svg xmlns="http://www.w3.org/2000/svg" width="24" height="24.016" viewBox="0 0 24 24.016">
  <path id="パス_81355" data-name="パス 81355" d="M10.5-12.562a2.558,2.558,0,0,1,1.078,1.078A3.477,3.477,0,0,1,12-9.75a3.477,3.477,0,0,1-.422,1.734A2.558,2.558,0,0,1,10.5-6.937V0a1.535,1.535,0,0,1-.937,1.406,1.534,1.534,0,0,1-1.641-.328L5.906-1.031A12.25,12.25,0,0,0,2.016-3.609,12.144,12.144,0,0,0-2.578-4.5H-3v6a1.46,1.46,0,0,1-.422,1.078A1.46,1.46,0,0,1-4.5,3h-3a1.46,1.46,0,0,1-1.078-.422A1.46,1.46,0,0,1-9,1.5v-6a3.03,3.03,0,0,1-2.109-.891A3.03,3.03,0,0,1-12-7.5V-12a3.03,3.03,0,0,1,.891-2.109A3.03,3.03,0,0,1-9-15h6.422a12.144,12.144,0,0,0,4.594-.891,12.948,12.948,0,0,0,3.891-2.625l2.016-2.062a1.534,1.534,0,0,1,1.641-.328A1.535,1.535,0,0,1,10.5-19.5ZM-2.578-12H-3v4.5h.422A14.382,14.382,0,0,1,2.813-6.469,15.133,15.133,0,0,1,7.5-3.609V-15.891a15.133,15.133,0,0,1-4.687,2.859A14.382,14.382,0,0,1-2.578-12Z" transform="translate(12 21.016)" fill="#67be91"/>
</svg>
