<svg xmlns="http://www.w3.org/2000/svg" width="24" height="22.5" viewBox="0 0 24 22.5">
  <path id="パス_81356" data-name="パス 81356" d="M3-5.25a.722.722,0,0,1-.75.75h-4.5A.722.722,0,0,1-3-5.25V-7.5h-9V-.75A2.446,2.446,0,0,0-11.344.844,2.446,2.446,0,0,0-9.75,1.5H9.75A2.446,2.446,0,0,0,11.344.844,2.446,2.446,0,0,0,12-.75V-7.5H3ZM9.75-16.5H6v-2.25a2.446,2.446,0,0,0-.656-1.594A2.446,2.446,0,0,0,3.75-21h-7.5a2.446,2.446,0,0,0-1.594.656A2.446,2.446,0,0,0-6-18.75v2.25H-9.75a2.446,2.446,0,0,0-1.594.656A2.446,2.446,0,0,0-12-14.25V-9H12v-5.25a2.446,2.446,0,0,0-.656-1.594A2.446,2.446,0,0,0,9.75-16.5Zm-6,0h-7.5v-2.25h7.5Z" transform="translate(12 21)" fill="#67be91"/>
</svg>
