<svg xmlns="http://www.w3.org/2000/svg" width="23.971" height="23.982" viewBox="0 0 23.971 23.982">
  <path id="パス_81352" data-name="パス 81352" d="M23.953-2.859,22.875,1.875A1.459,1.459,0,0,1,21.422,3,20.829,20.829,0,0,1,10.641.047,21.574,21.574,0,0,1,2.953-7.641,20.829,20.829,0,0,1,0-18.422a1.459,1.459,0,0,1,1.125-1.453l4.734-1.078a1.494,1.494,0,0,1,1.688.844L9.7-15.047a1.462,1.462,0,0,1-.422,1.734L6.8-11.3A15.814,15.814,0,0,0,9.891-6.937,16.664,16.664,0,0,0,14.25-3.8l2.063-2.531a1.462,1.462,0,0,1,1.734-.422l5.063,2.156A1.658,1.658,0,0,1,23.953-2.859Z" transform="translate(0 20.982)" fill="#fff"/>
</svg>
